ISO-10303-21;
HEADER;
/* Generated by software containing ST-Developer
 * from STEP Tools, Inc. (www.steptools.com) 
 */
/* OPTION: using custom renumber hook */

FILE_DESCRIPTION(
/* description */ ('STEP AP242 Edition 2',
'CAx-IF Rec.Pracs.---Representation and Presentation of Product Manufa
cturing Information (PMI)---4.0---2014-10-13',
'CAx-IF Rec.Pracs.---3D Tessellated Geometry---0.4---2014-09-14','2;1',
'CAx-IF Rec.Pracs.---User Defined Attributes---1.5---2016-08-15'),
/* implementation_level */ '2;1');

FILE_NAME(
/* name */ 'Part Studio 1',
/* time_stamp */ '2026-05-30T17:56:32Z',
/* author */ (''),
/* organization */ (''),
/* preprocessor_version */ 'ST-DEVELOPER v20',
/* originating_system */ 'ONSHAPE BY PTC INC, 1.215',
/* authorisation */ '  ');

FILE_SCHEMA (('AP242_MANAGED_MODEL_BASED_3D_ENGINEERING_MIM_LF { 1 0 10303 442 3 1 4 }'));
ENDSEC;

DATA;
#10=SHAPE_REPRESENTATION_RELATIONSHIP('','',#801,#11);
#11=ADVANCED_BREP_SHAPE_REPRESENTATION('',(#799),#1303);
#12=CYLINDRICAL_SURFACE('',#824,0.01);
#13=CYLINDRICAL_SURFACE('',#825,0.01);
#14=CYLINDRICAL_SURFACE('',#826,0.01);
#15=CYLINDRICAL_SURFACE('',#827,0.01);
#16=CYLINDRICAL_SURFACE('',#849,0.030039547894724);
#17=CYLINDRICAL_SURFACE('',#852,0.025);
#18=CYLINDRICAL_SURFACE('',#853,0.025);
#19=CYLINDRICAL_SURFACE('',#860,0.00585730236473186);
#20=CIRCLE('',#806,0.01);
#21=CIRCLE('',#807,0.01);
#22=CIRCLE('',#808,0.01);
#23=CIRCLE('',#809,0.01);
#24=CIRCLE('',#813,0.025);
#25=CIRCLE('',#814,0.025);
#26=CIRCLE('',#820,0.01);
#27=CIRCLE('',#821,0.01);
#28=CIRCLE('',#822,0.01);
#29=CIRCLE('',#823,0.01);
#30=CIRCLE('',#841,0.030039547894724);
#31=CIRCLE('',#842,0.025);
#32=CIRCLE('',#843,0.025);
#33=CIRCLE('',#850,0.030039547894724);
#34=CIRCLE('',#861,0.00585730236473186);
#35=CIRCLE('',#862,0.00585730236473186);
#36=ORIENTED_EDGE('',*,*,#248,.T.);
#37=ORIENTED_EDGE('',*,*,#249,.T.);
#38=ORIENTED_EDGE('',*,*,#250,.T.);
#39=ORIENTED_EDGE('',*,*,#251,.T.);
#40=ORIENTED_EDGE('',*,*,#252,.T.);
#41=ORIENTED_EDGE('',*,*,#253,.T.);
#42=ORIENTED_EDGE('',*,*,#254,.T.);
#43=ORIENTED_EDGE('',*,*,#255,.T.);
#44=ORIENTED_EDGE('',*,*,#256,.T.);
#45=ORIENTED_EDGE('',*,*,#257,.T.);
#46=ORIENTED_EDGE('',*,*,#258,.T.);
#47=ORIENTED_EDGE('',*,*,#259,.T.);
#48=ORIENTED_EDGE('',*,*,#260,.F.);
#49=ORIENTED_EDGE('',*,*,#261,.T.);
#50=ORIENTED_EDGE('',*,*,#262,.T.);
#51=ORIENTED_EDGE('',*,*,#263,.T.);
#52=ORIENTED_EDGE('',*,*,#264,.F.);
#53=ORIENTED_EDGE('',*,*,#265,.T.);
#54=ORIENTED_EDGE('',*,*,#266,.T.);
#55=ORIENTED_EDGE('',*,*,#267,.T.);
#56=ORIENTED_EDGE('',*,*,#268,.T.);
#57=ORIENTED_EDGE('',*,*,#269,.T.);
#58=ORIENTED_EDGE('',*,*,#270,.F.);
#59=ORIENTED_EDGE('',*,*,#271,.T.);
#60=ORIENTED_EDGE('',*,*,#272,.T.);
#61=ORIENTED_EDGE('',*,*,#273,.T.);
#62=ORIENTED_EDGE('',*,*,#274,.T.);
#63=ORIENTED_EDGE('',*,*,#275,.T.);
#64=ORIENTED_EDGE('',*,*,#276,.F.);
#65=ORIENTED_EDGE('',*,*,#277,.T.);
#66=ORIENTED_EDGE('',*,*,#278,.T.);
#67=ORIENTED_EDGE('',*,*,#279,.T.);
#68=ORIENTED_EDGE('',*,*,#280,.F.);
#69=ORIENTED_EDGE('',*,*,#281,.T.);
#70=ORIENTED_EDGE('',*,*,#282,.T.);
#71=ORIENTED_EDGE('',*,*,#283,.T.);
#72=ORIENTED_EDGE('',*,*,#284,.T.);
#73=ORIENTED_EDGE('',*,*,#285,.T.);
#74=ORIENTED_EDGE('',*,*,#286,.F.);
#75=ORIENTED_EDGE('',*,*,#287,.T.);
#76=ORIENTED_EDGE('',*,*,#288,.T.);
#77=ORIENTED_EDGE('',*,*,#289,.T.);
#78=ORIENTED_EDGE('',*,*,#290,.T.);
#79=ORIENTED_EDGE('',*,*,#291,.T.);
#80=ORIENTED_EDGE('',*,*,#264,.T.);
#81=ORIENTED_EDGE('',*,*,#292,.T.);
#82=ORIENTED_EDGE('',*,*,#248,.F.);
#83=ORIENTED_EDGE('',*,*,#293,.T.);
#84=ORIENTED_EDGE('',*,*,#282,.F.);
#85=ORIENTED_EDGE('',*,*,#294,.T.);
#86=ORIENTED_EDGE('',*,*,#280,.T.);
#87=ORIENTED_EDGE('',*,*,#295,.T.);
#88=ORIENTED_EDGE('',*,*,#260,.T.);
#89=ORIENTED_EDGE('',*,*,#296,.T.);
#90=ORIENTED_EDGE('',*,*,#272,.F.);
#91=ORIENTED_EDGE('',*,*,#297,.T.);
#92=ORIENTED_EDGE('',*,*,#298,.T.);
#93=ORIENTED_EDGE('',*,*,#299,.T.);
#94=ORIENTED_EDGE('',*,*,#300,.F.);
#95=ORIENTED_EDGE('',*,*,#301,.T.);
#96=ORIENTED_EDGE('',*,*,#270,.T.);
#97=ORIENTED_EDGE('',*,*,#302,.T.);
#98=ORIENTED_EDGE('',*,*,#303,.F.);
#99=ORIENTED_EDGE('',*,*,#304,.T.);
#100=ORIENTED_EDGE('',*,*,#276,.T.);
#101=ORIENTED_EDGE('',*,*,#305,.T.);
#102=ORIENTED_EDGE('',*,*,#306,.T.);
#103=ORIENTED_EDGE('',*,*,#307,.T.);
#104=ORIENTED_EDGE('',*,*,#274,.F.);
#105=ORIENTED_EDGE('',*,*,#308,.T.);
#106=ORIENTED_EDGE('',*,*,#298,.F.);
#107=ORIENTED_EDGE('',*,*,#309,.T.);
#108=ORIENTED_EDGE('',*,*,#300,.T.);
#109=ORIENTED_EDGE('',*,*,#310,.T.);
#110=ORIENTED_EDGE('',*,*,#303,.T.);
#111=ORIENTED_EDGE('',*,*,#311,.T.);
#112=ORIENTED_EDGE('',*,*,#306,.F.);
#113=ORIENTED_EDGE('',*,*,#312,.T.);
#114=ORIENTED_EDGE('',*,*,#309,.F.);
#115=ORIENTED_EDGE('',*,*,#297,.F.);
#116=ORIENTED_EDGE('',*,*,#271,.F.);
#117=ORIENTED_EDGE('',*,*,#301,.F.);
#118=ORIENTED_EDGE('',*,*,#310,.F.);
#119=ORIENTED_EDGE('',*,*,#302,.F.);
#120=ORIENTED_EDGE('',*,*,#277,.F.);
#121=ORIENTED_EDGE('',*,*,#304,.F.);
#122=ORIENTED_EDGE('',*,*,#311,.F.);
#123=ORIENTED_EDGE('',*,*,#305,.F.);
#124=ORIENTED_EDGE('',*,*,#275,.F.);
#125=ORIENTED_EDGE('',*,*,#307,.F.);
#126=ORIENTED_EDGE('',*,*,#312,.F.);
#127=ORIENTED_EDGE('',*,*,#308,.F.);
#128=ORIENTED_EDGE('',*,*,#273,.F.);
#129=ORIENTED_EDGE('',*,*,#299,.F.);
#130=ORIENTED_EDGE('',*,*,#294,.F.);
#131=ORIENTED_EDGE('',*,*,#285,.F.);
#132=ORIENTED_EDGE('',*,*,#313,.F.);
#133=ORIENTED_EDGE('',*,*,#281,.F.);
#134=ORIENTED_EDGE('',*,*,#293,.F.);
#135=ORIENTED_EDGE('',*,*,#251,.F.);
#136=ORIENTED_EDGE('',*,*,#314,.F.);
#137=ORIENTED_EDGE('',*,*,#283,.F.);
#138=ORIENTED_EDGE('',*,*,#315,.F.);
#139=ORIENTED_EDGE('',*,*,#284,.F.);
#140=ORIENTED_EDGE('',*,*,#316,.F.);
#141=ORIENTED_EDGE('',*,*,#266,.F.);
#142=ORIENTED_EDGE('',*,*,#313,.T.);
#143=ORIENTED_EDGE('',*,*,#315,.T.);
#144=ORIENTED_EDGE('',*,*,#317,.F.);
#145=ORIENTED_EDGE('',*,*,#316,.T.);
#146=ORIENTED_EDGE('',*,*,#314,.T.);
#147=ORIENTED_EDGE('',*,*,#318,.F.);
#148=ORIENTED_EDGE('',*,*,#317,.T.);
#149=ORIENTED_EDGE('',*,*,#269,.F.);
#150=ORIENTED_EDGE('',*,*,#319,.F.);
#151=ORIENTED_EDGE('',*,*,#278,.F.);
#152=ORIENTED_EDGE('',*,*,#295,.F.);
#153=ORIENTED_EDGE('',*,*,#279,.F.);
#154=ORIENTED_EDGE('',*,*,#320,.F.);
#155=ORIENTED_EDGE('',*,*,#261,.F.);
#156=ORIENTED_EDGE('',*,*,#292,.F.);
#157=ORIENTED_EDGE('',*,*,#263,.F.);
#158=ORIENTED_EDGE('',*,*,#321,.F.);
#159=ORIENTED_EDGE('',*,*,#249,.F.);
#160=ORIENTED_EDGE('',*,*,#318,.T.);
#161=ORIENTED_EDGE('',*,*,#250,.F.);
#162=ORIENTED_EDGE('',*,*,#322,.F.);
#163=ORIENTED_EDGE('',*,*,#267,.F.);
#164=ORIENTED_EDGE('',*,*,#320,.T.);
#165=ORIENTED_EDGE('',*,*,#319,.T.);
#166=ORIENTED_EDGE('',*,*,#323,.F.);
#167=ORIENTED_EDGE('',*,*,#322,.T.);
#168=ORIENTED_EDGE('',*,*,#321,.T.);
#169=ORIENTED_EDGE('',*,*,#324,.F.);
#170=ORIENTED_EDGE('',*,*,#323,.T.);
#171=ORIENTED_EDGE('',*,*,#268,.F.);
#172=ORIENTED_EDGE('',*,*,#324,.T.);
#173=ORIENTED_EDGE('',*,*,#262,.F.);
#174=ORIENTED_EDGE('',*,*,#325,.F.);
#175=ORIENTED_EDGE('',*,*,#326,.T.);
#176=ORIENTED_EDGE('',*,*,#327,.T.);
#177=ORIENTED_EDGE('',*,*,#328,.T.);
#178=ORIENTED_EDGE('',*,*,#329,.T.);
#179=ORIENTED_EDGE('',*,*,#258,.F.);
#180=ORIENTED_EDGE('',*,*,#330,.T.);
#181=ORIENTED_EDGE('',*,*,#331,.F.);
#182=ORIENTED_EDGE('',*,*,#332,.T.);
#183=ORIENTED_EDGE('',*,*,#290,.F.);
#184=ORIENTED_EDGE('',*,*,#333,.T.);
#185=ORIENTED_EDGE('',*,*,#331,.T.);
#186=ORIENTED_EDGE('',*,*,#334,.T.);
#187=ORIENTED_EDGE('',*,*,#328,.F.);
#188=ORIENTED_EDGE('',*,*,#335,.T.);
#189=ORIENTED_EDGE('',*,*,#286,.T.);
#190=ORIENTED_EDGE('',*,*,#336,.T.);
#191=ORIENTED_EDGE('',*,*,#288,.F.);
#192=ORIENTED_EDGE('',*,*,#337,.T.);
#193=ORIENTED_EDGE('',*,*,#326,.F.);
#194=ORIENTED_EDGE('',*,*,#338,.T.);
#195=ORIENTED_EDGE('',*,*,#330,.F.);
#196=ORIENTED_EDGE('',*,*,#265,.F.);
#197=ORIENTED_EDGE('',*,*,#291,.F.);
#198=ORIENTED_EDGE('',*,*,#334,.F.);
#199=ORIENTED_EDGE('',*,*,#329,.F.);
#200=ORIENTED_EDGE('',*,*,#336,.F.);
#201=ORIENTED_EDGE('',*,*,#296,.F.);
#202=ORIENTED_EDGE('',*,*,#259,.F.);
#203=ORIENTED_EDGE('',*,*,#339,.F.);
#204=ORIENTED_EDGE('',*,*,#325,.T.);
#205=ORIENTED_EDGE('',*,*,#339,.T.);
#206=ORIENTED_EDGE('',*,*,#327,.F.);
#207=ORIENTED_EDGE('',*,*,#337,.F.);
#208=ORIENTED_EDGE('',*,*,#287,.F.);
#209=ORIENTED_EDGE('',*,*,#335,.F.);
#210=ORIENTED_EDGE('',*,*,#332,.F.);
#211=ORIENTED_EDGE('',*,*,#333,.F.);
#212=ORIENTED_EDGE('',*,*,#289,.F.);
#213=ORIENTED_EDGE('',*,*,#338,.F.);
#214=ORIENTED_EDGE('',*,*,#252,.F.);
#215=ORIENTED_EDGE('',*,*,#340,.F.);
#216=ORIENTED_EDGE('',*,*,#341,.T.);
#217=ORIENTED_EDGE('',*,*,#342,.T.);
#218=ORIENTED_EDGE('',*,*,#257,.F.);
#219=ORIENTED_EDGE('',*,*,#343,.F.);
#220=ORIENTED_EDGE('',*,*,#344,.T.);
#221=ORIENTED_EDGE('',*,*,#340,.T.);
#222=ORIENTED_EDGE('',*,*,#256,.F.);
#223=ORIENTED_EDGE('',*,*,#345,.F.);
#224=ORIENTED_EDGE('',*,*,#346,.T.);
#225=ORIENTED_EDGE('',*,*,#343,.T.);
#226=ORIENTED_EDGE('',*,*,#255,.F.);
#227=ORIENTED_EDGE('',*,*,#347,.F.);
#228=ORIENTED_EDGE('',*,*,#348,.T.);
#229=ORIENTED_EDGE('',*,*,#345,.T.);
#230=ORIENTED_EDGE('',*,*,#254,.F.);
#231=ORIENTED_EDGE('',*,*,#349,.F.);
#232=ORIENTED_EDGE('',*,*,#350,.T.);
#233=ORIENTED_EDGE('',*,*,#347,.T.);
#234=ORIENTED_EDGE('',*,*,#253,.F.);
#235=ORIENTED_EDGE('',*,*,#342,.F.);
#236=ORIENTED_EDGE('',*,*,#351,.T.);
#237=ORIENTED_EDGE('',*,*,#349,.T.);
#238=ORIENTED_EDGE('',*,*,#352,.T.);
#239=ORIENTED_EDGE('',*,*,#353,.F.);
#240=ORIENTED_EDGE('',*,*,#341,.F.);
#241=ORIENTED_EDGE('',*,*,#344,.F.);
#242=ORIENTED_EDGE('',*,*,#346,.F.);
#243=ORIENTED_EDGE('',*,*,#348,.F.);
#244=ORIENTED_EDGE('',*,*,#350,.F.);
#245=ORIENTED_EDGE('',*,*,#351,.F.);
#246=ORIENTED_EDGE('',*,*,#352,.F.);
#247=ORIENTED_EDGE('',*,*,#353,.T.);
#248=EDGE_CURVE('',#354,#355,#422,.T.);
#249=EDGE_CURVE('',#355,#356,#423,.T.);
#250=EDGE_CURVE('',#356,#357,#424,.T.);
#251=EDGE_CURVE('',#357,#354,#425,.T.);
#252=EDGE_CURVE('',#358,#359,#426,.T.);
#253=EDGE_CURVE('',#359,#360,#427,.T.);
#254=EDGE_CURVE('',#360,#361,#428,.T.);
#255=EDGE_CURVE('',#361,#362,#429,.T.);
#256=EDGE_CURVE('',#362,#363,#430,.T.);
#257=EDGE_CURVE('',#363,#358,#431,.T.);
#258=EDGE_CURVE('',#364,#365,#432,.T.);
#259=EDGE_CURVE('',#365,#366,#433,.T.);
#260=EDGE_CURVE('',#367,#366,#434,.T.);
#261=EDGE_CURVE('',#367,#368,#435,.T.);
#262=EDGE_CURVE('',#368,#369,#436,.T.);
#263=EDGE_CURVE('',#369,#370,#437,.T.);
#264=EDGE_CURVE('',#371,#370,#438,.T.);
#265=EDGE_CURVE('',#371,#364,#439,.T.);
#266=EDGE_CURVE('',#372,#373,#440,.T.);
#267=EDGE_CURVE('',#373,#374,#441,.T.);
#268=EDGE_CURVE('',#374,#375,#442,.T.);
#269=EDGE_CURVE('',#375,#372,#443,.T.);
#270=EDGE_CURVE('',#376,#377,#444,.T.);
#271=EDGE_CURVE('',#376,#378,#20,.F.);
#272=EDGE_CURVE('',#378,#379,#445,.T.);
#273=EDGE_CURVE('',#379,#380,#21,.F.);
#274=EDGE_CURVE('',#380,#381,#446,.T.);
#275=EDGE_CURVE('',#381,#382,#22,.F.);
#276=EDGE_CURVE('',#383,#382,#447,.T.);
#277=EDGE_CURVE('',#383,#377,#23,.F.);
#278=EDGE_CURVE('',#384,#385,#448,.T.);
#279=EDGE_CURVE('',#385,#386,#449,.T.);
#280=EDGE_CURVE('',#387,#386,#450,.T.);
#281=EDGE_CURVE('',#387,#384,#451,.T.);
#282=EDGE_CURVE('',#388,#389,#452,.T.);
#283=EDGE_CURVE('',#389,#390,#453,.T.);
#284=EDGE_CURVE('',#390,#391,#454,.T.);
#285=EDGE_CURVE('',#391,#388,#455,.T.);
#286=EDGE_CURVE('',#392,#393,#456,.T.);
#287=EDGE_CURVE('',#392,#394,#24,.F.);
#288=EDGE_CURVE('',#394,#395,#457,.T.);
#289=EDGE_CURVE('',#395,#396,#25,.F.);
#290=EDGE_CURVE('',#396,#397,#458,.T.);
#291=EDGE_CURVE('',#397,#371,#459,.T.);
#292=EDGE_CURVE('',#370,#355,#460,.T.);
#293=EDGE_CURVE('',#354,#389,#461,.F.);
#294=EDGE_CURVE('',#388,#387,#462,.T.);
#295=EDGE_CURVE('',#386,#367,#463,.F.);
#296=EDGE_CURVE('',#366,#393,#464,.F.);
#297=EDGE_CURVE('',#378,#398,#465,.F.);
#298=EDGE_CURVE('',#398,#399,#466,.T.);
#299=EDGE_CURVE('',#399,#379,#467,.T.);
#300=EDGE_CURVE('',#400,#401,#468,.T.);
#301=EDGE_CURVE('',#400,#376,#469,.T.);
#302=EDGE_CURVE('',#377,#401,#470,.F.);
#303=EDGE_CURVE('',#402,#403,#471,.T.);
#304=EDGE_CURVE('',#402,#383,#472,.T.);
#305=EDGE_CURVE('',#382,#403,#473,.F.);
#306=EDGE_CURVE('',#404,#405,#474,.T.);
#307=EDGE_CURVE('',#405,#381,#475,.T.);
#308=EDGE_CURVE('',#380,#404,#476,.F.);
#309=EDGE_CURVE('',#398,#400,#26,.T.);
#310=EDGE_CURVE('',#401,#402,#27,.T.);
#311=EDGE_CURVE('',#403,#405,#28,.T.);
#312=EDGE_CURVE('',#404,#399,#29,.T.);
#313=EDGE_CURVE('',#384,#391,#477,.T.);
#314=EDGE_CURVE('',#390,#357,#478,.F.);
#315=EDGE_CURVE('',#391,#372,#479,.T.);
#316=EDGE_CURVE('',#373,#390,#480,.T.);
#317=EDGE_CURVE('',#384,#372,#481,.T.);
#318=EDGE_CURVE('',#373,#357,#482,.F.);
#319=EDGE_CURVE('',#385,#375,#483,.F.);
#320=EDGE_CURVE('',#368,#385,#484,.F.);
#321=EDGE_CURVE('',#356,#369,#485,.T.);
#322=EDGE_CURVE('',#374,#356,#486,.T.);
#323=EDGE_CURVE('',#368,#375,#487,.T.);
#324=EDGE_CURVE('',#374,#369,#488,.T.);
#325=EDGE_CURVE('',#406,#406,#30,.T.);
#326=EDGE_CURVE('',#407,#408,#489,.T.);
#327=EDGE_CURVE('',#408,#409,#31,.T.);
#328=EDGE_CURVE('',#409,#410,#490,.T.);
#329=EDGE_CURVE('',#410,#365,#491,.F.);
#330=EDGE_CURVE('',#364,#411,#492,.T.);
#331=EDGE_CURVE('',#412,#411,#493,.T.);
#332=EDGE_CURVE('',#412,#407,#32,.T.);
#333=EDGE_CURVE('',#396,#412,#494,.F.);
#334=EDGE_CURVE('',#411,#397,#495,.T.);
#335=EDGE_CURVE('',#409,#392,#496,.T.);
#336=EDGE_CURVE('',#393,#410,#497,.T.);
#337=EDGE_CURVE('',#394,#408,#498,.F.);
#338=EDGE_CURVE('',#407,#395,#499,.T.);
#339=EDGE_CURVE('',#413,#413,#33,.T.);
#340=EDGE_CURVE('',#414,#358,#500,.T.);
#341=EDGE_CURVE('',#414,#415,#501,.T.);
#342=EDGE_CURVE('',#415,#359,#502,.T.);
#343=EDGE_CURVE('',#416,#363,#503,.T.);
#344=EDGE_CURVE('',#416,#414,#504,.T.);
#345=EDGE_CURVE('',#417,#362,#505,.T.);
#346=EDGE_CURVE('',#417,#416,#506,.T.);
#347=EDGE_CURVE('',#418,#361,#507,.T.);
#348=EDGE_CURVE('',#418,#417,#508,.T.);
#349=EDGE_CURVE('',#419,#360,#509,.T.);
#350=EDGE_CURVE('',#419,#418,#510,.T.);
#351=EDGE_CURVE('',#415,#419,#511,.T.);
#352=EDGE_CURVE('',#420,#420,#34,.T.);
#353=EDGE_CURVE('',#421,#421,#35,.T.);
#354=VERTEX_POINT('',#1084);
#355=VERTEX_POINT('',#1085);
#356=VERTEX_POINT('',#1087);
#357=VERTEX_POINT('',#1089);
#358=VERTEX_POINT('',#1092);
#359=VERTEX_POINT('',#1093);
#360=VERTEX_POINT('',#1095);
#361=VERTEX_POINT('',#1097);
#362=VERTEX_POINT('',#1099);
#363=VERTEX_POINT('',#1101);
#364=VERTEX_POINT('',#1105);
#365=VERTEX_POINT('',#1106);
#366=VERTEX_POINT('',#1108);
#367=VERTEX_POINT('',#1110);
#368=VERTEX_POINT('',#1112);
#369=VERTEX_POINT('',#1114);
#370=VERTEX_POINT('',#1116);
#371=VERTEX_POINT('',#1118);
#372=VERTEX_POINT('',#1122);
#373=VERTEX_POINT('',#1123);
#374=VERTEX_POINT('',#1125);
#375=VERTEX_POINT('',#1127);
#376=VERTEX_POINT('',#1130);
#377=VERTEX_POINT('',#1131);
#378=VERTEX_POINT('',#1133);
#379=VERTEX_POINT('',#1135);
#380=VERTEX_POINT('',#1137);
#381=VERTEX_POINT('',#1139);
#382=VERTEX_POINT('',#1141);
#383=VERTEX_POINT('',#1143);
#384=VERTEX_POINT('',#1147);
#385=VERTEX_POINT('',#1148);
#386=VERTEX_POINT('',#1150);
#387=VERTEX_POINT('',#1152);
#388=VERTEX_POINT('',#1156);
#389=VERTEX_POINT('',#1157);
#390=VERTEX_POINT('',#1159);
#391=VERTEX_POINT('',#1161);
#392=VERTEX_POINT('',#1165);
#393=VERTEX_POINT('',#1166);
#394=VERTEX_POINT('',#1168);
#395=VERTEX_POINT('',#1170);
#396=VERTEX_POINT('',#1172);
#397=VERTEX_POINT('',#1174);
#398=VERTEX_POINT('',#1183);
#399=VERTEX_POINT('',#1185);
#400=VERTEX_POINT('',#1189);
#401=VERTEX_POINT('',#1190);
#402=VERTEX_POINT('',#1195);
#403=VERTEX_POINT('',#1196);
#404=VERTEX_POINT('',#1201);
#405=VERTEX_POINT('',#1202);
#406=VERTEX_POINT('',#1240);
#407=VERTEX_POINT('',#1242);
#408=VERTEX_POINT('',#1243);
#409=VERTEX_POINT('',#1245);
#410=VERTEX_POINT('',#1247);
#411=VERTEX_POINT('',#1250);
#412=VERTEX_POINT('',#1252);
#413=VERTEX_POINT('',#1267);
#414=VERTEX_POINT('',#1273);
#415=VERTEX_POINT('',#1275);
#416=VERTEX_POINT('',#1279);
#417=VERTEX_POINT('',#1283);
#418=VERTEX_POINT('',#1287);
#419=VERTEX_POINT('',#1291);
#420=VERTEX_POINT('',#1297);
#421=VERTEX_POINT('',#1299);
#422=LINE('',#1083,#512);
#423=LINE('',#1086,#513);
#424=LINE('',#1088,#514);
#425=LINE('',#1090,#515);
#426=LINE('',#1091,#516);
#427=LINE('',#1094,#517);
#428=LINE('',#1096,#518);
#429=LINE('',#1098,#519);
#430=LINE('',#1100,#520);
#431=LINE('',#1102,#521);
#432=LINE('',#1104,#522);
#433=LINE('',#1107,#523);
#434=LINE('',#1109,#524);
#435=LINE('',#1111,#525);
#436=LINE('',#1113,#526);
#437=LINE('',#1115,#527);
#438=LINE('',#1117,#528);
#439=LINE('',#1119,#529);
#440=LINE('',#1121,#530);
#441=LINE('',#1124,#531);
#442=LINE('',#1126,#532);
#443=LINE('',#1128,#533);
#444=LINE('',#1129,#534);
#445=LINE('',#1134,#535);
#446=LINE('',#1138,#536);
#447=LINE('',#1142,#537);
#448=LINE('',#1146,#538);
#449=LINE('',#1149,#539);
#450=LINE('',#1151,#540);
#451=LINE('',#1153,#541);
#452=LINE('',#1155,#542);
#453=LINE('',#1158,#543);
#454=LINE('',#1160,#544);
#455=LINE('',#1162,#545);
#456=LINE('',#1164,#546);
#457=LINE('',#1169,#547);
#458=LINE('',#1173,#548);
#459=LINE('',#1175,#549);
#460=LINE('',#1176,#550);
#461=LINE('',#1177,#551);
#462=LINE('',#1178,#552);
#463=LINE('',#1179,#553);
#464=LINE('',#1180,#554);
#465=LINE('',#1182,#555);
#466=LINE('',#1184,#556);
#467=LINE('',#1186,#557);
#468=LINE('',#1188,#558);
#469=LINE('',#1191,#559);
#470=LINE('',#1192,#560);
#471=LINE('',#1194,#561);
#472=LINE('',#1197,#562);
#473=LINE('',#1198,#563);
#474=LINE('',#1200,#564);
#475=LINE('',#1203,#565);
#476=LINE('',#1204,#566);
#477=LINE('',#1215,#567);
#478=LINE('',#1217,#568);
#479=LINE('',#1219,#569);
#480=LINE('',#1220,#570);
#481=LINE('',#1222,#571);
#482=LINE('',#1224,#572);
#483=LINE('',#1226,#573);
#484=LINE('',#1228,#574);
#485=LINE('',#1230,#575);
#486=LINE('',#1232,#576);
#487=LINE('',#1234,#577);
#488=LINE('',#1236,#578);
#489=LINE('',#1241,#579);
#490=LINE('',#1246,#580);
#491=LINE('',#1248,#581);
#492=LINE('',#1249,#582);
#493=LINE('',#1251,#583);
#494=LINE('',#1255,#584);
#495=LINE('',#1256,#585);
#496=LINE('',#1258,#586);
#497=LINE('',#1259,#587);
#498=LINE('',#1261,#588);
#499=LINE('',#1262,#589);
#500=LINE('',#1272,#590);
#501=LINE('',#1274,#591);
#502=LINE('',#1276,#592);
#503=LINE('',#1278,#593);
#504=LINE('',#1280,#594);
#505=LINE('',#1282,#595);
#506=LINE('',#1284,#596);
#507=LINE('',#1286,#597);
#508=LINE('',#1288,#598);
#509=LINE('',#1290,#599);
#510=LINE('',#1292,#600);
#511=LINE('',#1294,#601);
#512=VECTOR('',#869,1.);
#513=VECTOR('',#870,1.);
#514=VECTOR('',#871,1.);
#515=VECTOR('',#872,1.);
#516=VECTOR('',#873,1.);
#517=VECTOR('',#874,1.);
#518=VECTOR('',#875,1.);
#519=VECTOR('',#876,1.);
#520=VECTOR('',#877,1.);
#521=VECTOR('',#878,1.);
#522=VECTOR('',#881,1.);
#523=VECTOR('',#882,1.);
#524=VECTOR('',#883,1.);
#525=VECTOR('',#884,1.);
#526=VECTOR('',#885,1.);
#527=VECTOR('',#886,1.);
#528=VECTOR('',#887,1.);
#529=VECTOR('',#888,1.);
#530=VECTOR('',#891,1.);
#531=VECTOR('',#892,1.);
#532=VECTOR('',#893,1.);
#533=VECTOR('',#894,1.);
#534=VECTOR('',#895,1.);
#535=VECTOR('',#898,1.);
#536=VECTOR('',#901,1.);
#537=VECTOR('',#904,1.);
#538=VECTOR('',#909,1.);
#539=VECTOR('',#910,1.);
#540=VECTOR('',#911,1.);
#541=VECTOR('',#912,1.);
#542=VECTOR('',#915,1.);
#543=VECTOR('',#916,1.);
#544=VECTOR('',#917,1.);
#545=VECTOR('',#918,1.);
#546=VECTOR('',#921,1.);
#547=VECTOR('',#924,1.);
#548=VECTOR('',#927,1.);
#549=VECTOR('',#928,1.);
#550=VECTOR('',#929,1.);
#551=VECTOR('',#930,1.);
#552=VECTOR('',#931,1.);
#553=VECTOR('',#932,1.);
#554=VECTOR('',#933,1.);
#555=VECTOR('',#936,1.);
#556=VECTOR('',#937,1.);
#557=VECTOR('',#938,1.);
#558=VECTOR('',#941,1.);
#559=VECTOR('',#942,1.);
#560=VECTOR('',#943,1.);
#561=VECTOR('',#946,1.);
#562=VECTOR('',#947,1.);
#563=VECTOR('',#948,1.);
#564=VECTOR('',#951,1.);
#565=VECTOR('',#952,1.);
#566=VECTOR('',#953,1.);
#567=VECTOR('',#974,1.);
#568=VECTOR('',#977,1.);
#569=VECTOR('',#980,1.);
#570=VECTOR('',#981,1.);
#571=VECTOR('',#984,1.);
#572=VECTOR('',#987,1.);
#573=VECTOR('',#990,1.);
#574=VECTOR('',#993,1.);
#575=VECTOR('',#996,1.);
#576=VECTOR('',#999,1.);
#577=VECTOR('',#1002,1.);
#578=VECTOR('',#1005,1.);
#579=VECTOR('',#1012,1.);
#580=VECTOR('',#1015,1.);
#581=VECTOR('',#1016,1.);
#582=VECTOR('',#1017,1.);
#583=VECTOR('',#1018,1.);
#584=VECTOR('',#1023,1.);
#585=VECTOR('',#1024,1.);
#586=VECTOR('',#1027,1.);
#587=VECTOR('',#1028,1.);
#588=VECTOR('',#1031,1.);
#589=VECTOR('',#1032,1.);
#590=VECTOR('',#1049,1.);
#591=VECTOR('',#1050,1.);
#592=VECTOR('',#1051,1.);
#593=VECTOR('',#1054,1.);
#594=VECTOR('',#1055,1.);
#595=VECTOR('',#1058,1.);
#596=VECTOR('',#1059,1.);
#597=VECTOR('',#1062,1.);
#598=VECTOR('',#1063,1.);
#599=VECTOR('',#1066,1.);
#600=VECTOR('',#1067,1.);
#601=VECTOR('',#1070,1.);
#602=EDGE_LOOP('',(#36,#37,#38,#39));
#603=EDGE_LOOP('',(#40,#41,#42,#43,#44,#45));
#604=EDGE_LOOP('',(#46,#47,#48,#49,#50,#51,#52,#53));
#605=EDGE_LOOP('',(#54,#55,#56,#57));
#606=EDGE_LOOP('',(#58,#59,#60,#61,#62,#63,#64,#65));
#607=EDGE_LOOP('',(#66,#67,#68,#69));
#608=EDGE_LOOP('',(#70,#71,#72,#73));
#609=EDGE_LOOP('',(#74,#75,#76,#77,#78,#79,#80,#81,#82,#83,#84,#85,#86,
#87,#88,#89));
#610=EDGE_LOOP('',(#90,#91,#92,#93));
#611=EDGE_LOOP('',(#94,#95,#96,#97));
#612=EDGE_LOOP('',(#98,#99,#100,#101));
#613=EDGE_LOOP('',(#102,#103,#104,#105));
#614=EDGE_LOOP('',(#106,#107,#108,#109,#110,#111,#112,#113));
#615=EDGE_LOOP('',(#114,#115,#116,#117));
#616=EDGE_LOOP('',(#118,#119,#120,#121));
#617=EDGE_LOOP('',(#122,#123,#124,#125));
#618=EDGE_LOOP('',(#126,#127,#128,#129));
#619=EDGE_LOOP('',(#130,#131,#132,#133));
#620=EDGE_LOOP('',(#134,#135,#136,#137));
#621=EDGE_LOOP('',(#138,#139,#140,#141));
#622=EDGE_LOOP('',(#142,#143,#144));
#623=EDGE_LOOP('',(#145,#146,#147));
#624=EDGE_LOOP('',(#148,#149,#150,#151));
#625=EDGE_LOOP('',(#152,#153,#154,#155));
#626=EDGE_LOOP('',(#156,#157,#158,#159));
#627=EDGE_LOOP('',(#160,#161,#162,#163));
#628=EDGE_LOOP('',(#164,#165,#166));
#629=EDGE_LOOP('',(#167,#168,#169));
#630=EDGE_LOOP('',(#170,#171,#172,#173));
#631=EDGE_LOOP('',(#174));
#632=EDGE_LOOP('',(#175,#176,#177,#178,#179,#180,#181,#182));
#633=EDGE_LOOP('',(#183,#184,#185,#186));
#634=EDGE_LOOP('',(#187,#188,#189,#190));
#635=EDGE_LOOP('',(#191,#192,#193,#194));
#636=EDGE_LOOP('',(#195,#196,#197,#198));
#637=EDGE_LOOP('',(#199,#200,#201,#202));
#638=EDGE_LOOP('',(#203));
#639=EDGE_LOOP('',(#204));
#640=EDGE_LOOP('',(#205));
#641=EDGE_LOOP('',(#206,#207,#208,#209));
#642=EDGE_LOOP('',(#210,#211,#212,#213));
#643=EDGE_LOOP('',(#214,#215,#216,#217));
#644=EDGE_LOOP('',(#218,#219,#220,#221));
#645=EDGE_LOOP('',(#222,#223,#224,#225));
#646=EDGE_LOOP('',(#226,#227,#228,#229));
#647=EDGE_LOOP('',(#230,#231,#232,#233));
#648=EDGE_LOOP('',(#234,#235,#236,#237));
#649=EDGE_LOOP('',(#238));
#650=EDGE_LOOP('',(#239));
#651=EDGE_LOOP('',(#240,#241,#242,#243,#244,#245));
#652=EDGE_LOOP('',(#246));
#653=EDGE_LOOP('',(#247));
#654=FACE_BOUND('',#602,.T.);
#655=FACE_BOUND('',#603,.T.);
#656=FACE_BOUND('',#604,.T.);
#657=FACE_BOUND('',#605,.T.);
#658=FACE_BOUND('',#606,.T.);
#659=FACE_BOUND('',#607,.T.);
#660=FACE_BOUND('',#608,.T.);
#661=FACE_BOUND('',#609,.T.);
#662=FACE_BOUND('',#610,.T.);
#663=FACE_BOUND('',#611,.T.);
#664=FACE_BOUND('',#612,.T.);
#665=FACE_BOUND('',#613,.T.);
#666=FACE_BOUND('',#614,.T.);
#667=FACE_BOUND('',#615,.T.);
#668=FACE_BOUND('',#616,.T.);
#669=FACE_BOUND('',#617,.T.);
#670=FACE_BOUND('',#618,.T.);
#671=FACE_BOUND('',#619,.T.);
#672=FACE_BOUND('',#620,.T.);
#673=FACE_BOUND('',#621,.T.);
#674=FACE_BOUND('',#622,.T.);
#675=FACE_BOUND('',#623,.T.);
#676=FACE_BOUND('',#624,.T.);
#677=FACE_BOUND('',#625,.T.);
#678=FACE_BOUND('',#626,.T.);
#679=FACE_BOUND('',#627,.T.);
#680=FACE_BOUND('',#628,.T.);
#681=FACE_BOUND('',#629,.T.);
#682=FACE_BOUND('',#630,.T.);
#683=FACE_BOUND('',#631,.T.);
#684=FACE_BOUND('',#632,.T.);
#685=FACE_BOUND('',#633,.T.);
#686=FACE_BOUND('',#634,.T.);
#687=FACE_BOUND('',#635,.T.);
#688=FACE_BOUND('',#636,.T.);
#689=FACE_BOUND('',#637,.T.);
#690=FACE_BOUND('',#638,.T.);
#691=FACE_BOUND('',#639,.T.);
#692=FACE_BOUND('',#640,.T.);
#693=FACE_BOUND('',#641,.T.);
#694=FACE_BOUND('',#642,.T.);
#695=FACE_BOUND('',#643,.T.);
#696=FACE_BOUND('',#644,.T.);
#697=FACE_BOUND('',#645,.T.);
#698=FACE_BOUND('',#646,.T.);
#699=FACE_BOUND('',#647,.T.);
#700=FACE_BOUND('',#648,.T.);
#701=FACE_BOUND('',#649,.T.);
#702=FACE_BOUND('',#650,.T.);
#703=FACE_BOUND('',#651,.T.);
#704=FACE_BOUND('',#652,.T.);
#705=FACE_BOUND('',#653,.T.);
#706=PLANE('',#803);
#707=PLANE('',#804);
#708=PLANE('',#805);
#709=PLANE('',#810);
#710=PLANE('',#811);
#711=PLANE('',#812);
#712=PLANE('',#815);
#713=PLANE('',#816);
#714=PLANE('',#817);
#715=PLANE('',#818);
#716=PLANE('',#819);
#717=PLANE('',#828);
#718=PLANE('',#829);
#719=PLANE('',#830);
#720=PLANE('',#831);
#721=PLANE('',#832);
#722=PLANE('',#833);
#723=PLANE('',#834);
#724=PLANE('',#835);
#725=PLANE('',#836);
#726=PLANE('',#837);
#727=PLANE('',#838);
#728=PLANE('',#839);
#729=PLANE('',#840);
#730=PLANE('',#844);
#731=PLANE('',#845);
#732=PLANE('',#846);
#733=PLANE('',#847);
#734=PLANE('',#848);
#735=PLANE('',#851);
#736=PLANE('',#854);
#737=PLANE('',#855);
#738=PLANE('',#856);
#739=PLANE('',#857);
#740=PLANE('',#858);
#741=PLANE('',#859);
#742=PLANE('',#863);
#743=PLANE('',#864);
#744=ADVANCED_FACE('',(#654,#655),#706,.F.);
#745=ADVANCED_FACE('',(#656),#707,.T.);
#746=ADVANCED_FACE('',(#657,#658),#708,.T.);
#747=ADVANCED_FACE('',(#659),#709,.T.);
#748=ADVANCED_FACE('',(#660),#710,.F.);
#749=ADVANCED_FACE('',(#661),#711,.F.);
#750=ADVANCED_FACE('',(#662),#712,.T.);
#751=ADVANCED_FACE('',(#663),#713,.F.);
#752=ADVANCED_FACE('',(#664),#714,.F.);
#753=ADVANCED_FACE('',(#665),#715,.T.);
#754=ADVANCED_FACE('',(#666),#716,.T.);
#755=ADVANCED_FACE('',(#667),#12,.F.);
#756=ADVANCED_FACE('',(#668),#13,.F.);
#757=ADVANCED_FACE('',(#669),#14,.F.);
#758=ADVANCED_FACE('',(#670),#15,.F.);
#759=ADVANCED_FACE('',(#671),#717,.T.);
#760=ADVANCED_FACE('',(#672),#718,.F.);
#761=ADVANCED_FACE('',(#673),#719,.T.);
#762=ADVANCED_FACE('',(#674),#720,.T.);
#763=ADVANCED_FACE('',(#675),#721,.T.);
#764=ADVANCED_FACE('',(#676),#722,.F.);
#765=ADVANCED_FACE('',(#677),#723,.F.);
#766=ADVANCED_FACE('',(#678),#724,.T.);
#767=ADVANCED_FACE('',(#679),#725,.T.);
#768=ADVANCED_FACE('',(#680),#726,.T.);
#769=ADVANCED_FACE('',(#681),#727,.T.);
#770=ADVANCED_FACE('',(#682),#728,.F.);
#771=ADVANCED_FACE('',(#683,#684),#729,.T.);
#772=ADVANCED_FACE('',(#685),#730,.F.);
#773=ADVANCED_FACE('',(#686),#731,.T.);
#774=ADVANCED_FACE('',(#687),#732,.T.);
#775=ADVANCED_FACE('',(#688),#733,.F.);
#776=ADVANCED_FACE('',(#689),#734,.T.);
#777=ADVANCED_FACE('',(#690,#691),#16,.F.);
#778=ADVANCED_FACE('',(#692),#735,.T.);
#779=ADVANCED_FACE('',(#693),#17,.T.);
#780=ADVANCED_FACE('',(#694),#18,.T.);
#781=ADVANCED_FACE('',(#695),#736,.T.);
#782=ADVANCED_FACE('',(#696),#737,.T.);
#783=ADVANCED_FACE('',(#697),#738,.T.);
#784=ADVANCED_FACE('',(#698),#739,.T.);
#785=ADVANCED_FACE('',(#699),#740,.T.);
#786=ADVANCED_FACE('',(#700),#741,.T.);
#787=ADVANCED_FACE('',(#701,#702),#19,.T.);
#788=ADVANCED_FACE('',(#703,#704),#742,.T.);
#789=ADVANCED_FACE('',(#705),#743,.F.);
#790=CLOSED_SHELL('',(#744,#745,#746,#747,#748,#749,#750,#751,#752,#753,
#754,#755,#756,#757,#758,#759,#760,#761,#762,#763,#764,#765,#766,#767,#768,
#769,#770,#771,#772,#773,#774,#775,#776,#777,#778,#779,#780,#781,#782,#783,
#784,#785,#786,#787,#788,#789));
#791=STYLED_ITEM('',(#792),#799);
#792=PRESENTATION_STYLE_ASSIGNMENT((#793));
#793=SURFACE_STYLE_USAGE(.BOTH.,#794);
#794=SURFACE_SIDE_STYLE('',(#795));
#795=SURFACE_STYLE_FILL_AREA(#796);
#796=FILL_AREA_STYLE('',(#797));
#797=FILL_AREA_STYLE_COLOUR('',#798);
#798=COLOUR_RGB('',0.615686274509804,0.811764705882353,0.929411764705882);
#799=MANIFOLD_SOLID_BREP('Part 1',#790);
#800=SHAPE_DEFINITION_REPRESENTATION(#1308,#801);
#801=SHAPE_REPRESENTATION('Part 1',(#802),#1303);
#802=AXIS2_PLACEMENT_3D('',#1081,#865,#866);
#803=AXIS2_PLACEMENT_3D('',#1082,#867,#868);
#804=AXIS2_PLACEMENT_3D('',#1103,#879,#880);
#805=AXIS2_PLACEMENT_3D('',#1120,#889,#890);
#806=AXIS2_PLACEMENT_3D('',#1132,#896,#897);
#807=AXIS2_PLACEMENT_3D('',#1136,#899,#900);
#808=AXIS2_PLACEMENT_3D('',#1140,#902,#903);
#809=AXIS2_PLACEMENT_3D('',#1144,#905,#906);
#810=AXIS2_PLACEMENT_3D('',#1145,#907,#908);
#811=AXIS2_PLACEMENT_3D('',#1154,#913,#914);
#812=AXIS2_PLACEMENT_3D('',#1163,#919,#920);
#813=AXIS2_PLACEMENT_3D('',#1167,#922,#923);
#814=AXIS2_PLACEMENT_3D('',#1171,#925,#926);
#815=AXIS2_PLACEMENT_3D('',#1181,#934,#935);
#816=AXIS2_PLACEMENT_3D('',#1187,#939,#940);
#817=AXIS2_PLACEMENT_3D('',#1193,#944,#945);
#818=AXIS2_PLACEMENT_3D('',#1199,#949,#950);
#819=AXIS2_PLACEMENT_3D('',#1205,#954,#955);
#820=AXIS2_PLACEMENT_3D('',#1206,#956,#957);
#821=AXIS2_PLACEMENT_3D('',#1207,#958,#959);
#822=AXIS2_PLACEMENT_3D('',#1208,#960,#961);
#823=AXIS2_PLACEMENT_3D('',#1209,#962,#963);
#824=AXIS2_PLACEMENT_3D('',#1210,#964,#965);
#825=AXIS2_PLACEMENT_3D('',#1211,#966,#967);
#826=AXIS2_PLACEMENT_3D('',#1212,#968,#969);
#827=AXIS2_PLACEMENT_3D('',#1213,#970,#971);
#828=AXIS2_PLACEMENT_3D('',#1214,#972,#973);
#829=AXIS2_PLACEMENT_3D('',#1216,#975,#976);
#830=AXIS2_PLACEMENT_3D('',#1218,#978,#979);
#831=AXIS2_PLACEMENT_3D('',#1221,#982,#983);
#832=AXIS2_PLACEMENT_3D('',#1223,#985,#986);
#833=AXIS2_PLACEMENT_3D('',#1225,#988,#989);
#834=AXIS2_PLACEMENT_3D('',#1227,#991,#992);
#835=AXIS2_PLACEMENT_3D('',#1229,#994,#995);
#836=AXIS2_PLACEMENT_3D('',#1231,#997,#998);
#837=AXIS2_PLACEMENT_3D('',#1233,#1000,#1001);
#838=AXIS2_PLACEMENT_3D('',#1235,#1003,#1004);
#839=AXIS2_PLACEMENT_3D('',#1237,#1006,#1007);
#840=AXIS2_PLACEMENT_3D('',#1238,#1008,#1009);
#841=AXIS2_PLACEMENT_3D('',#1239,#1010,#1011);
#842=AXIS2_PLACEMENT_3D('',#1244,#1013,#1014);
#843=AXIS2_PLACEMENT_3D('',#1253,#1019,#1020);
#844=AXIS2_PLACEMENT_3D('',#1254,#1021,#1022);
#845=AXIS2_PLACEMENT_3D('',#1257,#1025,#1026);
#846=AXIS2_PLACEMENT_3D('',#1260,#1029,#1030);
#847=AXIS2_PLACEMENT_3D('',#1263,#1033,#1034);
#848=AXIS2_PLACEMENT_3D('',#1264,#1035,#1036);
#849=AXIS2_PLACEMENT_3D('',#1265,#1037,#1038);
#850=AXIS2_PLACEMENT_3D('',#1266,#1039,#1040);
#851=AXIS2_PLACEMENT_3D('',#1268,#1041,#1042);
#852=AXIS2_PLACEMENT_3D('',#1269,#1043,#1044);
#853=AXIS2_PLACEMENT_3D('',#1270,#1045,#1046);
#854=AXIS2_PLACEMENT_3D('',#1271,#1047,#1048);
#855=AXIS2_PLACEMENT_3D('',#1277,#1052,#1053);
#856=AXIS2_PLACEMENT_3D('',#1281,#1056,#1057);
#857=AXIS2_PLACEMENT_3D('',#1285,#1060,#1061);
#858=AXIS2_PLACEMENT_3D('',#1289,#1064,#1065);
#859=AXIS2_PLACEMENT_3D('',#1293,#1068,#1069);
#860=AXIS2_PLACEMENT_3D('',#1295,#1071,#1072);
#861=AXIS2_PLACEMENT_3D('',#1296,#1073,#1074);
#862=AXIS2_PLACEMENT_3D('',#1298,#1075,#1076);
#863=AXIS2_PLACEMENT_3D('',#1300,#1077,#1078);
#864=AXIS2_PLACEMENT_3D('',#1301,#1079,#1080);
#865=DIRECTION('',(0.,0.,1.));
#866=DIRECTION('',(1.,0.,0.));
#867=DIRECTION('',(0.,1.,0.));
#868=DIRECTION('',(0.,0.,1.));
#869=DIRECTION('',(1.,0.,0.));
#870=DIRECTION('',(0.,0.,1.));
#871=DIRECTION('',(-1.,0.,0.));
#872=DIRECTION('',(0.,0.,-1.));
#873=DIRECTION('',(0.047600441743101,0.,0.998866456512512));
#874=DIRECTION('',(0.924331250196997,0.,-0.381591063717767));
#875=DIRECTION('',(-0.900171497325837,0.,-0.435535618982145));
#876=DIRECTION('',(0.56025946198558,0.,-0.82831717068743));
#877=DIRECTION('',(-0.698070892656951,0.,0.716028650840962));
#878=DIRECTION('',(-0.479320863031488,0.,-0.877639738311085));
#879=DIRECTION('',(1.,0.,0.));
#880=DIRECTION('',(0.,0.,-1.));
#881=DIRECTION('',(0.,1.,3.96508223080413E-16));
#882=DIRECTION('',(0.,9.25185853854297E-17,-1.));
#883=DIRECTION('',(0.,-1.,0.));
#884=DIRECTION('',(0.,0.,1.));
#885=DIRECTION('',(0.,-1.,0.));
#886=DIRECTION('',(0.,0.,-1.));
#887=DIRECTION('',(0.,-1.,0.));
#888=DIRECTION('',(0.,-1.85037170770859E-16,1.));
#889=DIRECTION('',(0.,0.,1.));
#890=DIRECTION('',(1.,0.,0.));
#891=DIRECTION('',(0.,-1.,0.));
#892=DIRECTION('',(1.,0.,0.));
#893=DIRECTION('',(0.,1.,0.));
#894=DIRECTION('',(-1.,0.,0.));
#895=DIRECTION('',(0.,-1.,0.));
#896=DIRECTION('',(0.,0.,1.));
#897=DIRECTION('',(1.,0.,0.));
#898=DIRECTION('',(1.,1.6326809185664E-16,0.));
#899=DIRECTION('',(0.,0.,1.));
#900=DIRECTION('',(1.,0.,0.));
#901=DIRECTION('',(0.,-1.,0.));
#902=DIRECTION('',(0.,0.,1.));
#903=DIRECTION('',(1.,0.,0.));
#904=DIRECTION('',(1.,0.,0.));
#905=DIRECTION('',(0.,0.,1.));
#906=DIRECTION('',(1.,0.,0.));
#907=DIRECTION('',(0.,1.,0.));
#908=DIRECTION('',(0.,0.,1.));
#909=DIRECTION('',(1.,0.,0.));
#910=DIRECTION('',(0.,0.,-1.));
#911=DIRECTION('',(1.,0.,0.));
#912=DIRECTION('',(0.,0.,1.));
#913=DIRECTION('',(1.,0.,0.));
#914=DIRECTION('',(0.,0.,-1.));
#915=DIRECTION('',(0.,-1.,0.));
#916=DIRECTION('',(0.,0.,1.));
#917=DIRECTION('',(0.,1.,0.));
#918=DIRECTION('',(0.,0.,-1.));
#919=DIRECTION('',(0.,0.,1.));
#920=DIRECTION('',(1.,0.,0.));
#921=DIRECTION('',(-1.,0.,0.));
#922=DIRECTION('',(0.,0.,1.));
#923=DIRECTION('',(1.,0.,0.));
#924=DIRECTION('',(0.,-1.,0.));
#925=DIRECTION('',(0.,0.,1.));
#926=DIRECTION('',(1.,0.,0.));
#927=DIRECTION('',(-1.,0.,0.));
#928=DIRECTION('',(-0.707106781186548,-0.707106781186548,0.));
#929=DIRECTION('',(-0.707106781186547,-0.707106781186548,0.));
#930=DIRECTION('',(0.707106781186548,-0.707106781186548,0.));
#931=DIRECTION('',(0.707106781186548,0.707106781186548,0.));
#932=DIRECTION('',(-0.707106781186548,0.707106781186548,0.));
#933=DIRECTION('',(-0.707106781186547,0.707106781186548,0.));
#934=DIRECTION('',(1.6326809185664E-16,-1.,0.));
#935=DIRECTION('',(1.,1.6326809185664E-16,0.));
#936=DIRECTION('',(0.,0.,1.));
#937=DIRECTION('',(1.,1.6326809185664E-16,0.));
#938=DIRECTION('',(0.,0.,1.));
#939=DIRECTION('',(-1.,0.,0.));
#940=DIRECTION('',(0.,0.,1.));
#941=DIRECTION('',(0.,-1.,0.));
#942=DIRECTION('',(0.,0.,1.));
#943=DIRECTION('',(0.,0.,1.));
#944=DIRECTION('',(0.,-1.,0.));
#945=DIRECTION('',(0.,0.,-1.));
#946=DIRECTION('',(1.,0.,0.));
#947=DIRECTION('',(0.,0.,1.));
#948=DIRECTION('',(0.,0.,1.));
#949=DIRECTION('',(-1.,0.,0.));
#950=DIRECTION('',(0.,0.,1.));
#951=DIRECTION('',(0.,-1.,0.));
#952=DIRECTION('',(0.,0.,1.));
#953=DIRECTION('',(0.,0.,1.));
#954=DIRECTION('',(0.,0.,1.));
#955=DIRECTION('',(1.,0.,0.));
#956=DIRECTION('',(0.,0.,1.));
#957=DIRECTION('',(1.,0.,0.));
#958=DIRECTION('',(0.,0.,1.));
#959=DIRECTION('',(1.,0.,0.));
#960=DIRECTION('',(0.,0.,1.));
#961=DIRECTION('',(1.,0.,0.));
#962=DIRECTION('',(0.,0.,1.));
#963=DIRECTION('',(1.,0.,0.));
#964=DIRECTION('',(0.,0.,1.));
#965=DIRECTION('',(1.,0.,0.));
#966=DIRECTION('',(0.,0.,-1.));
#967=DIRECTION('',(-1.,0.,0.));
#968=DIRECTION('',(0.,0.,1.));
#969=DIRECTION('',(1.,0.,0.));
#970=DIRECTION('',(0.,0.,-1.));
#971=DIRECTION('',(-1.,0.,0.));
#972=DIRECTION('',(-0.707106781186548,0.707106781186548,0.));
#973=DIRECTION('',(0.,0.,1.));
#974=DIRECTION('',(-0.707106781186548,-0.707106781186548,0.));
#975=DIRECTION('',(0.707106781186548,0.707106781186548,0.));
#976=DIRECTION('',(0.,0.,-1.));
#977=DIRECTION('',(-0.707106781186548,0.707106781186548,0.));
#978=DIRECTION('',(-0.707106781186548,0.,0.707106781186548));
#979=DIRECTION('',(0.,1.,0.));
#980=DIRECTION('',(0.707106781186548,6.73036940234247E-16,0.707106781186548));
#981=DIRECTION('',(-0.707106781186548,0.,-0.707106781186548));
#982=DIRECTION('',(-0.577350269189626,0.577350269189626,0.577350269189625));
#983=DIRECTION('',(-0.707106781186548,-0.707106781186548,0.));
#984=DIRECTION('',(7.69185074553425E-16,-0.707106781186547,0.707106781186548));
#985=DIRECTION('',(-0.577350269189626,-0.577350269189626,0.577350269189626));
#986=DIRECTION('',(0.707106781186548,0.,0.707106781186548));
#987=DIRECTION('',(6.73036940234247E-16,0.707106781186547,0.707106781186548));
#988=DIRECTION('',(0.,-0.707106781186548,-0.707106781186547));
#989=DIRECTION('',(1.,0.,0.));
#990=DIRECTION('',(-7.00792515849876E-16,0.707106781186547,-0.707106781186548));
#991=DIRECTION('',(-0.707106781186548,-0.707106781186548,0.));
#992=DIRECTION('',(0.,0.,-1.));
#993=DIRECTION('',(0.707106781186548,-0.707106781186548,0.));
#994=DIRECTION('',(0.707106781186548,-0.707106781186547,0.));
#995=DIRECTION('',(0.,0.,1.));
#996=DIRECTION('',(0.707106781186547,0.707106781186548,0.));
#997=DIRECTION('',(0.,-0.707106781186548,0.707106781186547));
#998=DIRECTION('',(-1.,0.,0.));
#999=DIRECTION('',(-6.73036940234246E-16,-0.707106781186547,-0.707106781186548));
#1000=DIRECTION('',(0.577350269189626,0.577350269189626,0.577350269189625));
#1001=DIRECTION('',(-0.707106781186548,0.707106781186548,0.));
#1002=DIRECTION('',(-0.707106781186547,7.00792515849876E-16,0.707106781186548));
#1003=DIRECTION('',(0.577350269189627,-0.577350269189626,0.577350269189625));
#1004=DIRECTION('',(0.707106781186547,0.707106781186548,0.));
#1005=DIRECTION('',(0.707106781186547,5.76888805915069E-16,-0.707106781186548));
#1006=DIRECTION('',(-0.707106781186548,0.,-0.707106781186547));
#1007=DIRECTION('',(0.,-1.,0.));
#1008=DIRECTION('',(0.,-3.96508223080413E-16,1.));
#1009=DIRECTION('',(0.,-1.,-3.96508223080413E-16));
#1010=DIRECTION('',(0.,-3.96508223080413E-16,1.));
#1011=DIRECTION('',(0.,-1.,-3.96508223080413E-16));
#1012=DIRECTION('',(0.,1.,3.96508223080413E-16));
#1013=DIRECTION('',(0.,-3.96508223080413E-16,1.));
#1014=DIRECTION('',(0.,-1.,-3.96508223080413E-16));
#1015=DIRECTION('',(-1.,0.,0.));
#1016=DIRECTION('',(0.707106781186547,-0.707106781186548,-2.80373653336388E-16));
#1017=DIRECTION('',(0.707106781186548,0.707106781186548,2.80373653336388E-16));
#1018=DIRECTION('',(-1.,0.,0.));
#1019=DIRECTION('',(0.,-3.96508223080413E-16,1.));
#1020=DIRECTION('',(0.,-1.,-3.96508223080413E-16));
#1021=DIRECTION('',(0.,1.,1.85037170770859E-16));
#1022=DIRECTION('',(0.,-1.85037170770859E-16,1.));
#1023=DIRECTION('',(0.,1.85037170770859E-16,-1.));
#1024=DIRECTION('',(0.,1.85037170770859E-16,-1.));
#1025=DIRECTION('',(0.,1.,9.25185853854297E-17));
#1026=DIRECTION('',(0.,-9.25185853854297E-17,1.));
#1027=DIRECTION('',(0.,9.25185853854297E-17,-1.));
#1028=DIRECTION('',(0.,-9.25185853854297E-17,1.));
#1029=DIRECTION('',(1.,0.,0.));
#1030=DIRECTION('',(0.,1.,0.));
#1031=DIRECTION('',(0.,9.25185853854297E-17,-1.));
#1032=DIRECTION('',(0.,1.85037170770859E-16,-1.));
#1033=DIRECTION('',(-0.707106781186548,0.707106781186548,1.30841038223648E-16));
#1034=DIRECTION('',(0.,1.85037170770859E-16,-1.));
#1035=DIRECTION('',(0.707106781186548,0.707106781186547,6.54205191118239E-17));
#1036=DIRECTION('',(0.,-9.25185853854297E-17,1.));
#1037=DIRECTION('',(0.,-3.96508223080413E-16,1.));
#1038=DIRECTION('',(0.,-1.,-3.96508223080413E-16));
#1039=DIRECTION('',(0.,-3.96508223080413E-16,1.));
#1040=DIRECTION('',(0.,-1.,-3.96508223080413E-16));
#1041=DIRECTION('',(0.,-3.96508223080413E-16,1.));
#1042=DIRECTION('',(1.,0.,0.));
#1043=DIRECTION('',(0.,9.25185853854297E-17,-1.));
#1044=DIRECTION('',(0.,1.,9.25185853854297E-17));
#1045=DIRECTION('',(0.,-1.85037170770859E-16,1.));
#1046=DIRECTION('',(0.,-1.,-1.85037170770859E-16));
#1047=DIRECTION('',(0.998866456512512,0.,-0.047600441743101));
#1048=DIRECTION('',(-0.047600441743101,0.,-0.998866456512512));
#1049=DIRECTION('',(0.,-1.,0.));
#1050=DIRECTION('',(0.047600441743101,0.,0.998866456512512));
#1051=DIRECTION('',(0.,-1.,0.));
#1052=DIRECTION('',(-0.877639738311085,0.,0.479320863031488));
#1053=DIRECTION('',(0.479320863031488,0.,0.877639738311085));
#1054=DIRECTION('',(0.,-1.,0.));
#1055=DIRECTION('',(-0.479320863031488,0.,-0.877639738311085));
#1056=DIRECTION('',(0.716028650840962,0.,0.698070892656951));
#1057=DIRECTION('',(0.698070892656951,0.,-0.716028650840962));
#1058=DIRECTION('',(0.,-1.,0.));
#1059=DIRECTION('',(-0.698070892656951,0.,0.716028650840962));
#1060=DIRECTION('',(-0.82831717068743,0.,-0.56025946198558));
#1061=DIRECTION('',(-0.560259461985579,0.,0.82831717068743));
#1062=DIRECTION('',(0.,-1.,0.));
#1063=DIRECTION('',(0.56025946198558,0.,-0.82831717068743));
#1064=DIRECTION('',(-0.435535618982145,0.,0.900171497325837));
#1065=DIRECTION('',(0.900171497325837,0.,0.435535618982145));
#1066=DIRECTION('',(0.,-1.,0.));
#1067=DIRECTION('',(-0.900171497325837,0.,-0.435535618982145));
#1068=DIRECTION('',(-0.381591063717767,0.,-0.924331250196997));
#1069=DIRECTION('',(-0.924331250196997,0.,0.381591063717767));
#1070=DIRECTION('',(0.924331250196997,0.,-0.381591063717767));
#1071=DIRECTION('',(0.,-1.,0.));
#1072=DIRECTION('',(0.,0.,-1.));
#1073=DIRECTION('',(0.,-1.,0.));
#1074=DIRECTION('',(0.,0.,-1.));
#1075=DIRECTION('',(0.,-1.,0.));
#1076=DIRECTION('',(0.,0.,-1.));
#1077=DIRECTION('',(0.,-1.,0.));
#1078=DIRECTION('',(1.,0.,0.));
#1079=DIRECTION('',(0.,1.,0.));
#1080=DIRECTION('',(0.,0.,1.));
#1081=CARTESIAN_POINT('',(0.,0.,0.));
#1082=CARTESIAN_POINT('',(0.00105013139545917,-0.0481860011140176,0.15));
#1083=CARTESIAN_POINT('',(0.00105013139545917,-0.0481860011140176,0.));
#1084=CARTESIAN_POINT('',(-0.0419498686045408,-0.0481860011140176,0.));
#1085=CARTESIAN_POINT('',(0.0440501313954592,-0.0481860011140176,0.));
#1086=CARTESIAN_POINT('',(0.0440501313954592,-0.0481860011140176,0.15));
#1087=CARTESIAN_POINT('',(0.0440501313954592,-0.0481860011140176,0.143));
#1088=CARTESIAN_POINT('',(-0.0489498686045408,-0.0481860011140176,0.143));
#1089=CARTESIAN_POINT('',(-0.0419498686045408,-0.0481860011140176,0.143));
#1090=CARTESIAN_POINT('',(-0.0419498686045408,-0.0481860011140176,0.15));
#1091=CARTESIAN_POINT('',(-0.0256687352368455,-0.0481860011140176,0.0817400627984316));
#1092=CARTESIAN_POINT('',(-0.0275337103212225,-0.0481860011140176,0.042604689558208));
#1093=CARTESIAN_POINT('',(-0.0238037601524685,-0.0481860011140176,0.120875436038655));
#1094=CARTESIAN_POINT('',(0.00156143074474283,-0.0481860011140176,0.110403940918472));
#1095=CARTESIAN_POINT('',(0.0269266216419541,-0.0481860011140176,0.099932445798288));
#1096=CARTESIAN_POINT('',(0.0073566705415336,-0.0481860011140176,0.0904637936677855));
#1097=CARTESIAN_POINT('',(-0.0122132805588869,-0.0481860011140176,0.0809951415372829));
#1098=CARTESIAN_POINT('',(0.0122216302160886,-0.0481860011140176,0.0448692792673325));
#1099=CARTESIAN_POINT('',(0.0366565409910641,-0.0481860011140176,0.00874341699738216));
#1100=CARTESIAN_POINT('',(0.0101587669471422,-0.0481860011140176,0.0359228418932458));
#1101=CARTESIAN_POINT('',(-0.0163390070967797,-0.0481860011140176,0.0631022667891093));
#1102=CARTESIAN_POINT('',(-0.021936358709001,-0.0481860011140176,0.0528534781736587));
#1103=CARTESIAN_POINT('',(0.0510501313954592,0.00181399888598241,0.15));
#1104=CARTESIAN_POINT('',(0.0510501313954592,-0.00118600111401759,0.075));
#1105=CARTESIAN_POINT('',(0.0510501313954592,-0.0401860011140176,0.075));
#1106=CARTESIAN_POINT('',(0.0510501313954592,0.0438139988859824,0.075));
#1107=CARTESIAN_POINT('',(0.0510501313954592,0.0438139988859824,9.25185853854298E-19));
#1108=CARTESIAN_POINT('',(0.0510501313954592,0.0438139988859824,0.));
#1109=CARTESIAN_POINT('',(0.0510501313954592,0.00181399888598241,0.));
#1110=CARTESIAN_POINT('',(0.0510501313954592,0.0448139988859824,0.));
#1111=CARTESIAN_POINT('',(0.0510501313954592,0.0448139988859824,0.15));
#1112=CARTESIAN_POINT('',(0.0510501313954592,0.0448139988859824,0.143));
#1113=CARTESIAN_POINT('',(0.0510501313954592,0.00181399888598241,0.143));
#1114=CARTESIAN_POINT('',(0.0510501313954592,-0.0411860011140176,0.143));
#1115=CARTESIAN_POINT('',(0.0510501313954592,-0.0411860011140176,0.));
#1116=CARTESIAN_POINT('',(0.0510501313954592,-0.0411860011140176,0.));
#1117=CARTESIAN_POINT('',(0.0510501313954592,0.00181399888598241,0.));
#1118=CARTESIAN_POINT('',(0.0510501313954592,-0.0401860011140176,0.));
#1119=CARTESIAN_POINT('',(0.0510501313954592,-0.0401860011140176,0.15));
#1120=CARTESIAN_POINT('',(0.00105013139545917,0.0018139988859824,0.15));
#1121=CARTESIAN_POINT('',(-0.0419498686045408,-0.0481860011140176,0.15));
#1122=CARTESIAN_POINT('',(-0.0419498686045408,0.0448139988859824,0.15));
#1123=CARTESIAN_POINT('',(-0.0419498686045408,-0.0411860011140176,0.15));
#1124=CARTESIAN_POINT('',(0.0510501313954592,-0.0411860011140176,0.15));
#1125=CARTESIAN_POINT('',(0.0440501313954592,-0.0411860011140176,0.15));
#1126=CARTESIAN_POINT('',(0.0440501313954592,0.0018139988859824,0.15));
#1127=CARTESIAN_POINT('',(0.0440501313954592,0.0448139988859824,0.15));
#1128=CARTESIAN_POINT('',(0.00105013139545917,0.0448139988859824,0.15));
#1129=CARTESIAN_POINT('',(-0.0414498686045408,0.0018139988859824,0.15));
#1130=CARTESIAN_POINT('',(-0.0414498686045408,0.0343139988859824,0.15));
#1131=CARTESIAN_POINT('',(-0.0414498686045408,-0.0306860011140176,0.15));
#1132=CARTESIAN_POINT('',(-0.0314498686045408,0.0343139988859824,0.15));
#1133=CARTESIAN_POINT('',(-0.0314498686045408,0.0443139988859824,0.15));
#1134=CARTESIAN_POINT('',(0.00105013139545917,0.0443139988859824,0.15));
#1135=CARTESIAN_POINT('',(0.0335501313954592,0.0443139988859824,0.15));
#1136=CARTESIAN_POINT('',(0.0335501313954592,0.0343139988859824,0.15));
#1137=CARTESIAN_POINT('',(0.0435501313954592,0.0343139988859824,0.15));
#1138=CARTESIAN_POINT('',(0.0435501313954592,0.00181399888598241,0.15));
#1139=CARTESIAN_POINT('',(0.0435501313954592,-0.0306860011140176,0.15));
#1140=CARTESIAN_POINT('',(0.0335501313954592,-0.0306860011140176,0.15));
#1141=CARTESIAN_POINT('',(0.0335501313954592,-0.0406860011140176,0.15));
#1142=CARTESIAN_POINT('',(0.00105013139545917,-0.0406860011140176,0.15));
#1143=CARTESIAN_POINT('',(-0.0314498686045408,-0.0406860011140176,0.15));
#1144=CARTESIAN_POINT('',(-0.0314498686045408,-0.0306860011140176,0.15));
#1145=CARTESIAN_POINT('',(0.00105013139545917,0.0518139988859824,0.15));
#1146=CARTESIAN_POINT('',(0.00105013139545917,0.0518139988859824,0.143));
#1147=CARTESIAN_POINT('',(-0.0419498686045408,0.0518139988859824,0.143));
#1148=CARTESIAN_POINT('',(0.0440501313954592,0.0518139988859824,0.143));
#1149=CARTESIAN_POINT('',(0.0440501313954592,0.0518139988859824,0.15));
#1150=CARTESIAN_POINT('',(0.0440501313954592,0.0518139988859824,0.));
#1151=CARTESIAN_POINT('',(0.00105013139545917,0.0518139988859824,0.));
#1152=CARTESIAN_POINT('',(-0.0419498686045408,0.0518139988859824,0.));
#1153=CARTESIAN_POINT('',(-0.0419498686045408,0.0518139988859824,0.15));
#1154=CARTESIAN_POINT('',(-0.0489498686045408,0.00181399888598241,0.15));
#1155=CARTESIAN_POINT('',(-0.0489498686045408,0.00181399888598241,0.));
#1156=CARTESIAN_POINT('',(-0.0489498686045408,0.0448139988859824,0.));
#1157=CARTESIAN_POINT('',(-0.0489498686045408,-0.0411860011140176,0.));
#1158=CARTESIAN_POINT('',(-0.0489498686045408,-0.0411860011140176,0.15));
#1159=CARTESIAN_POINT('',(-0.0489498686045408,-0.0411860011140176,0.143));
#1160=CARTESIAN_POINT('',(-0.0489498686045408,0.0518139988859824,0.143));
#1161=CARTESIAN_POINT('',(-0.0489498686045408,0.0448139988859824,0.143));
#1162=CARTESIAN_POINT('',(-0.0489498686045408,0.0448139988859824,0.));
#1163=CARTESIAN_POINT('',(0.00105013139545917,0.0018139988859824,0.));
#1164=CARTESIAN_POINT('',(0.131050131395459,0.0338139988859824,0.));
#1165=CARTESIAN_POINT('',(0.106050131395459,0.0338139988859824,0.));
#1166=CARTESIAN_POINT('',(0.0610501313954592,0.0338139988859824,0.));
#1167=CARTESIAN_POINT('',(0.106050131395459,0.00881399888598241,0.));
#1168=CARTESIAN_POINT('',(0.131050131395459,0.00881399888598241,0.));
#1169=CARTESIAN_POINT('',(0.131050131395459,0.00181399888598241,0.));
#1170=CARTESIAN_POINT('',(0.131050131395459,-0.0111860011140176,0.));
#1171=CARTESIAN_POINT('',(0.106050131395459,-0.0111860011140176,0.));
#1172=CARTESIAN_POINT('',(0.106050131395459,-0.0361860011140176,0.));
#1173=CARTESIAN_POINT('',(0.131050131395459,-0.0361860011140176,0.));
#1174=CARTESIAN_POINT('',(0.0550501313954592,-0.0361860011140176,0.));
#1175=CARTESIAN_POINT('',(0.0470501313954592,-0.0441860011140176,0.));
#1176=CARTESIAN_POINT('',(0.0510501313954592,-0.0411860011140176,0.));
#1177=CARTESIAN_POINT('',(-0.0419498686045408,-0.0481860011140176,0.));
#1178=CARTESIAN_POINT('',(-0.0489498686045408,0.0448139988859824,0.));
#1179=CARTESIAN_POINT('',(0.0440501313954592,0.0518139988859824,0.));
#1180=CARTESIAN_POINT('',(0.0470501313954592,0.0478139988859824,0.));
#1181=CARTESIAN_POINT('',(0.00105013139545917,0.0443139988859824,0.01));
#1182=CARTESIAN_POINT('',(-0.0314498686045408,0.0443139988859824,0.01));
#1183=CARTESIAN_POINT('',(-0.0314498686045408,0.0443139988859824,0.01));
#1184=CARTESIAN_POINT('',(0.00105013139545917,0.0443139988859824,0.01));
#1185=CARTESIAN_POINT('',(0.0335501313954592,0.0443139988859824,0.01));
#1186=CARTESIAN_POINT('',(0.0335501313954592,0.0443139988859824,0.15));
#1187=CARTESIAN_POINT('',(-0.0414498686045408,0.0018139988859824,0.01));
#1188=CARTESIAN_POINT('',(-0.0414498686045408,0.0018139988859824,0.01));
#1189=CARTESIAN_POINT('',(-0.0414498686045408,0.0343139988859824,0.01));
#1190=CARTESIAN_POINT('',(-0.0414498686045408,-0.0306860011140176,0.01));
#1191=CARTESIAN_POINT('',(-0.0414498686045408,0.0343139988859824,0.01));
#1192=CARTESIAN_POINT('',(-0.0414498686045408,-0.0306860011140176,0.01));
#1193=CARTESIAN_POINT('',(0.00105013139545917,-0.0406860011140176,0.01));
#1194=CARTESIAN_POINT('',(0.00105013139545917,-0.0406860011140176,0.01));
#1195=CARTESIAN_POINT('',(-0.0314498686045408,-0.0406860011140176,0.01));
#1196=CARTESIAN_POINT('',(0.0335501313954592,-0.0406860011140176,0.01));
#1197=CARTESIAN_POINT('',(-0.0314498686045408,-0.0406860011140176,0.15));
#1198=CARTESIAN_POINT('',(0.0335501313954592,-0.0406860011140176,0.01));
#1199=CARTESIAN_POINT('',(0.0435501313954592,0.00181399888598241,0.01));
#1200=CARTESIAN_POINT('',(0.0435501313954592,0.00181399888598241,0.01));
#1201=CARTESIAN_POINT('',(0.0435501313954592,0.0343139988859824,0.01));
#1202=CARTESIAN_POINT('',(0.0435501313954592,-0.0306860011140176,0.01));
#1203=CARTESIAN_POINT('',(0.0435501313954592,-0.0306860011140176,0.01));
#1204=CARTESIAN_POINT('',(0.0435501313954592,0.0343139988859824,0.01));
#1205=CARTESIAN_POINT('',(0.00105013139545917,0.0018139988859824,0.01));
#1206=CARTESIAN_POINT('',(-0.0314498686045408,0.0343139988859824,0.01));
#1207=CARTESIAN_POINT('',(-0.0314498686045408,-0.0306860011140176,0.01));
#1208=CARTESIAN_POINT('',(0.0335501313954592,-0.0306860011140176,0.01));
#1209=CARTESIAN_POINT('',(0.0335501313954592,0.0343139988859824,0.01));
#1210=CARTESIAN_POINT('',(-0.0314498686045408,0.0343139988859824,0.01));
#1211=CARTESIAN_POINT('',(-0.0314498686045408,-0.0306860011140176,0.01));
#1212=CARTESIAN_POINT('',(0.0335501313954592,-0.0306860011140176,0.01));
#1213=CARTESIAN_POINT('',(0.0335501313954592,0.0343139988859824,0.01));
#1214=CARTESIAN_POINT('',(-0.0489498686045408,0.0448139988859824,0.15));
#1215=CARTESIAN_POINT('',(-0.0489498686045408,0.0448139988859824,0.143));
#1216=CARTESIAN_POINT('',(-0.0419498686045408,-0.0481860011140176,0.15));
#1217=CARTESIAN_POINT('',(-0.0454498686045408,-0.0446860011140176,0.143));
#1218=CARTESIAN_POINT('',(-0.0419498686045408,0.0018139988859824,0.15));
#1219=CARTESIAN_POINT('',(-0.0489498686045408,0.0448139988859824,0.143));
#1220=CARTESIAN_POINT('',(-0.0419498686045408,-0.0411860011140176,0.15));
#1221=CARTESIAN_POINT('',(-0.0489498686045408,0.0448139988859824,0.143));
#1222=CARTESIAN_POINT('',(-0.0419498686045408,0.0483139988859824,0.1465));
#1223=CARTESIAN_POINT('',(-0.0419498686045408,-0.0411860011140176,0.15));
#1224=CARTESIAN_POINT('',(-0.0419498686045408,-0.0411860011140176,0.15));
#1225=CARTESIAN_POINT('',(0.00105013139545917,0.0518139988859824,0.143));
#1226=CARTESIAN_POINT('',(0.0440501313954592,0.0448139988859824,0.15));
#1227=CARTESIAN_POINT('',(0.0440501313954592,0.0518139988859824,0.15));
#1228=CARTESIAN_POINT('',(0.0475501313954592,0.0483139988859824,0.143));
#1229=CARTESIAN_POINT('',(0.0510501313954592,-0.0411860011140176,0.15));
#1230=CARTESIAN_POINT('',(0.0510501313954592,-0.0411860011140176,0.143));
#1231=CARTESIAN_POINT('',(0.00105013139545917,-0.0411860011140176,0.15));
#1232=CARTESIAN_POINT('',(0.0440501313954592,-0.0446860011140176,0.1465));
#1233=CARTESIAN_POINT('',(0.0440501313954592,0.0448139988859824,0.15));
#1234=CARTESIAN_POINT('',(0.0440501313954592,0.0448139988859824,0.15));
#1235=CARTESIAN_POINT('',(0.0510501313954592,-0.0411860011140176,0.143));
#1236=CARTESIAN_POINT('',(0.0510501313954592,-0.0411860011140176,0.143));
#1237=CARTESIAN_POINT('',(0.0510501313954592,0.00181399888598241,0.143));
#1238=CARTESIAN_POINT('',(0.131050131395459,-0.00118600111401759,0.075));
#1239=CARTESIAN_POINT('',(0.0911155417561531,-2.78987249221756E-17,0.075));
#1240=CARTESIAN_POINT('',(0.0911155417561531,-0.030039547894724,0.075));
#1241=CARTESIAN_POINT('',(0.131050131395459,-0.00118600111401759,0.075));
#1242=CARTESIAN_POINT('',(0.131050131395459,-0.0111860011140176,0.075));
#1243=CARTESIAN_POINT('',(0.131050131395459,0.00881399888598241,0.075));
#1244=CARTESIAN_POINT('',(0.106050131395459,0.00881399888598241,0.075));
#1245=CARTESIAN_POINT('',(0.106050131395459,0.0338139988859824,0.075));
#1246=CARTESIAN_POINT('',(0.131050131395459,0.0338139988859824,0.075));
#1247=CARTESIAN_POINT('',(0.0610501313954592,0.0338139988859824,0.075));
#1248=CARTESIAN_POINT('',(0.0510501313954592,0.0438139988859824,0.075));
#1249=CARTESIAN_POINT('',(0.0550501313954592,-0.0361860011140176,0.075));
#1250=CARTESIAN_POINT('',(0.0550501313954592,-0.0361860011140176,0.075));
#1251=CARTESIAN_POINT('',(0.131050131395459,-0.0361860011140176,0.075));
#1252=CARTESIAN_POINT('',(0.106050131395459,-0.0361860011140176,0.075));
#1253=CARTESIAN_POINT('',(0.106050131395459,-0.0111860011140176,0.075));
#1254=CARTESIAN_POINT('',(0.131050131395459,-0.0361860011140176,0.0375));
#1255=CARTESIAN_POINT('',(0.106050131395459,-0.0361860011140176,0.075));
#1256=CARTESIAN_POINT('',(0.0550501313954592,-0.0361860011140176,0.0375));
#1257=CARTESIAN_POINT('',(0.131050131395459,0.0338139988859824,0.0375));
#1258=CARTESIAN_POINT('',(0.106050131395459,0.0338139988859824,0.0375));
#1259=CARTESIAN_POINT('',(0.0610501313954592,0.0338139988859824,0.075));
#1260=CARTESIAN_POINT('',(0.131050131395459,0.00181399888598241,0.0715));
#1261=CARTESIAN_POINT('',(0.131050131395459,0.00881399888598241,0.0715));
#1262=CARTESIAN_POINT('',(0.131050131395459,-0.0111860011140176,0.));
#1263=CARTESIAN_POINT('',(0.0550501313954592,-0.0361860011140176,0.0375));
#1264=CARTESIAN_POINT('',(0.0510501313954592,0.0438139988859824,0.15));
#1265=CARTESIAN_POINT('',(0.0911155417561531,-2.12569042194876E-18,0.01));
#1266=CARTESIAN_POINT('',(0.0911155417561531,-2.12569042194876E-18,0.01));
#1267=CARTESIAN_POINT('',(0.0911155417561531,-0.030039547894724,0.00999999999999999));
#1268=CARTESIAN_POINT('',(0.0910501313954592,0.00181399888598244,0.01));
#1269=CARTESIAN_POINT('',(0.106050131395459,0.00881399888598241,0.0375));
#1270=CARTESIAN_POINT('',(0.106050131395459,-0.0111860011140176,0.0715));
#1271=CARTESIAN_POINT('',(-0.0256687352368455,-0.0431860011140176,0.0817400627984316));
#1272=CARTESIAN_POINT('',(-0.0275337103212225,-0.0431860011140176,0.042604689558208));
#1273=CARTESIAN_POINT('',(-0.0275337103212225,-0.0431860011140176,0.042604689558208));
#1274=CARTESIAN_POINT('',(-0.0256687352368455,-0.0431860011140176,0.0817400627984316));
#1275=CARTESIAN_POINT('',(-0.0238037601524685,-0.0431860011140176,0.120875436038655));
#1276=CARTESIAN_POINT('',(-0.0238037601524685,-0.0431860011140176,0.120875436038655));
#1277=CARTESIAN_POINT('',(-0.021936358709001,-0.0431860011140176,0.0528534781736587));
#1278=CARTESIAN_POINT('',(-0.0163390070967797,-0.0431860011140176,0.0631022667891093));
#1279=CARTESIAN_POINT('',(-0.0163390070967797,-0.0431860011140176,0.0631022667891093));
#1280=CARTESIAN_POINT('',(-0.021936358709001,-0.0431860011140176,0.0528534781736587));
#1281=CARTESIAN_POINT('',(0.0101587669471422,-0.0431860011140176,0.0359228418932458));
#1282=CARTESIAN_POINT('',(0.0366565409910641,-0.0431860011140176,0.00874341699738216));
#1283=CARTESIAN_POINT('',(0.0366565409910641,-0.0431860011140176,0.00874341699738216));
#1284=CARTESIAN_POINT('',(0.0101587669471422,-0.0431860011140176,0.0359228418932458));
#1285=CARTESIAN_POINT('',(0.0122216302160886,-0.0431860011140176,0.0448692792673325));
#1286=CARTESIAN_POINT('',(-0.0122132805588869,-0.0431860011140176,0.0809951415372829));
#1287=CARTESIAN_POINT('',(-0.0122132805588869,-0.0431860011140176,0.0809951415372829));
#1288=CARTESIAN_POINT('',(0.0122216302160886,-0.0431860011140176,0.0448692792673325));
#1289=CARTESIAN_POINT('',(0.0073566705415336,-0.0431860011140176,0.0904637936677855));
#1290=CARTESIAN_POINT('',(0.0269266216419541,-0.0431860011140176,0.099932445798288));
#1291=CARTESIAN_POINT('',(0.0269266216419541,-0.0431860011140176,0.099932445798288));
#1292=CARTESIAN_POINT('',(0.0073566705415336,-0.0431860011140176,0.0904637936677855));
#1293=CARTESIAN_POINT('',(0.00156143074474283,-0.0431860011140176,0.110403940918472));
#1294=CARTESIAN_POINT('',(0.00156143074474283,-0.0431860011140176,0.110403940918472));
#1295=CARTESIAN_POINT('',(-0.0104816047761054,-0.0431860011140176,0.0993939684031281));
#1296=CARTESIAN_POINT('',(-0.0104816047761054,-0.0431860011140176,0.0993939684031281));
#1297=CARTESIAN_POINT('',(-0.0104816047761054,-0.0431860011140176,0.0935366660383962));
#1298=CARTESIAN_POINT('',(-0.0104816047761054,-0.0481860011140176,0.0993939684031281));
#1299=CARTESIAN_POINT('',(-0.0104816047761054,-0.0481860011140176,0.0935366660383962));
#1300=CARTESIAN_POINT('',(0.00105013139545917,-0.0431860011140176,0.0715));
#1301=CARTESIAN_POINT('',(0.00105013139545917,-0.0481860011140176,0.15));
#1302=MECHANICAL_DESIGN_GEOMETRIC_PRESENTATION_REPRESENTATION('',(#791),
#1303);
#1303=(
GEOMETRIC_REPRESENTATION_CONTEXT(3)
GLOBAL_UNCERTAINTY_ASSIGNED_CONTEXT((#1304))
GLOBAL_UNIT_ASSIGNED_CONTEXT((#1307,#1306,#1305))
REPRESENTATION_CONTEXT('Part 1','TOP_LEVEL_ASSEMBLY_PART')
);
#1304=UNCERTAINTY_MEASURE_WITH_UNIT(LENGTH_MEASURE(1.E-8),#1307,
'DISTANCE_ACCURACY_VALUE','Maximum Tolerance applied to model');
#1305=(
NAMED_UNIT(*)
SI_UNIT($,.STERADIAN.)
SOLID_ANGLE_UNIT()
);
#1306=(
NAMED_UNIT(*)
PLANE_ANGLE_UNIT()
SI_UNIT($,.RADIAN.)
);
#1307=(
LENGTH_UNIT()
NAMED_UNIT(*)
SI_UNIT($,.METRE.)
);
#1308=PRODUCT_DEFINITION_SHAPE('','',#1309);
#1309=PRODUCT_DEFINITION('','',#1311,#1310);
#1310=PRODUCT_DEFINITION_CONTEXT('',#1317,'design');
#1311=PRODUCT_DEFINITION_FORMATION_WITH_SPECIFIED_SOURCE('','',#1313,
 .NOT_KNOWN.);
#1312=PRODUCT_RELATED_PRODUCT_CATEGORY('','',(#1313));
#1313=PRODUCT('Part 1','Part 1','Part 1',(#1315));
#1314=PRODUCT_CATEGORY('','');
#1315=PRODUCT_CONTEXT('',#1317,'mechanical');
#1316=APPLICATION_PROTOCOL_DEFINITION('international standard',
'ap242_managed_model_based_3d_engineering',2020,#1317);
#1317=APPLICATION_CONTEXT('managed model based 3d engineering');
ENDSEC;
END-ISO-10303-21;
