ISO-10303-21;
HEADER;
/* Generated by software containing ST-Developer
 * from STEP Tools, Inc. (www.steptools.com) 
 */
/* OPTION: using custom renumber hook */

FILE_DESCRIPTION(
/* description */ ('STEP AP242 Edition 2',
'CAx-IF Rec.Pracs.---Representation and Presentation of Product Manufa
cturing Information (PMI)---4.0---2014-10-13',
'CAx-IF Rec.Pracs.---3D Tessellated Geometry---0.4---2014-09-14','2;1',
'CAx-IF Rec.Pracs.---User Defined Attributes---1.5---2016-08-15'),
/* implementation_level */ '2;1');

FILE_NAME(
/* name */ 'Part Studio 1',
/* time_stamp */ '2026-05-28T13:44:05Z',
/* author */ (''),
/* organization */ (''),
/* preprocessor_version */ 'ST-DEVELOPER v20',
/* originating_system */ 'ONSHAPE BY PTC INC, 1.215',
/* authorisation */ '  ');

FILE_SCHEMA (('AP242_MANAGED_MODEL_BASED_3D_ENGINEERING_MIM_LF { 1 0 10303 442 3 1 4 }'));
ENDSEC;

DATA;
#10=SHAPE_REPRESENTATION_RELATIONSHIP('','',#837,#11);
#11=ADVANCED_BREP_SHAPE_REPRESENTATION('',(#835),#1360);
#12=CYLINDRICAL_SURFACE('',#858,0.01);
#13=CYLINDRICAL_SURFACE('',#859,0.01);
#14=CYLINDRICAL_SURFACE('',#860,0.01);
#15=CYLINDRICAL_SURFACE('',#861,0.01);
#16=CYLINDRICAL_SURFACE('',#887,0.030039547894724);
#17=CYLINDRICAL_SURFACE('',#890,0.025);
#18=CYLINDRICAL_SURFACE('',#891,0.025);
#19=CYLINDRICAL_SURFACE('',#898,0.00585730236473186);
#20=CIRCLE('',#842,0.01);
#21=CIRCLE('',#843,0.01);
#22=CIRCLE('',#844,0.01);
#23=CIRCLE('',#845,0.01);
#24=CIRCLE('',#854,0.01);
#25=CIRCLE('',#855,0.01);
#26=CIRCLE('',#856,0.01);
#27=CIRCLE('',#857,0.01);
#28=CIRCLE('',#875,0.030039547894724);
#29=CIRCLE('',#876,0.025);
#30=CIRCLE('',#877,0.025);
#31=CIRCLE('',#880,0.025);
#32=CIRCLE('',#881,0.025);
#33=CIRCLE('',#888,0.030039547894724);
#34=CIRCLE('',#899,0.00585730236473186);
#35=CIRCLE('',#900,0.00585730236473186);
#36=ORIENTED_EDGE('',*,*,#258,.T.);
#37=ORIENTED_EDGE('',*,*,#259,.T.);
#38=ORIENTED_EDGE('',*,*,#260,.T.);
#39=ORIENTED_EDGE('',*,*,#261,.T.);
#40=ORIENTED_EDGE('',*,*,#262,.T.);
#41=ORIENTED_EDGE('',*,*,#263,.T.);
#42=ORIENTED_EDGE('',*,*,#264,.T.);
#43=ORIENTED_EDGE('',*,*,#265,.T.);
#44=ORIENTED_EDGE('',*,*,#266,.T.);
#45=ORIENTED_EDGE('',*,*,#267,.T.);
#46=ORIENTED_EDGE('',*,*,#268,.T.);
#47=ORIENTED_EDGE('',*,*,#269,.T.);
#48=ORIENTED_EDGE('',*,*,#270,.F.);
#49=ORIENTED_EDGE('',*,*,#271,.T.);
#50=ORIENTED_EDGE('',*,*,#272,.T.);
#51=ORIENTED_EDGE('',*,*,#273,.T.);
#52=ORIENTED_EDGE('',*,*,#274,.F.);
#53=ORIENTED_EDGE('',*,*,#275,.T.);
#54=ORIENTED_EDGE('',*,*,#276,.T.);
#55=ORIENTED_EDGE('',*,*,#277,.T.);
#56=ORIENTED_EDGE('',*,*,#278,.T.);
#57=ORIENTED_EDGE('',*,*,#279,.T.);
#58=ORIENTED_EDGE('',*,*,#280,.F.);
#59=ORIENTED_EDGE('',*,*,#281,.T.);
#60=ORIENTED_EDGE('',*,*,#282,.T.);
#61=ORIENTED_EDGE('',*,*,#283,.T.);
#62=ORIENTED_EDGE('',*,*,#284,.T.);
#63=ORIENTED_EDGE('',*,*,#285,.T.);
#64=ORIENTED_EDGE('',*,*,#286,.F.);
#65=ORIENTED_EDGE('',*,*,#287,.T.);
#66=ORIENTED_EDGE('',*,*,#288,.T.);
#67=ORIENTED_EDGE('',*,*,#289,.T.);
#68=ORIENTED_EDGE('',*,*,#290,.F.);
#69=ORIENTED_EDGE('',*,*,#291,.T.);
#70=ORIENTED_EDGE('',*,*,#292,.T.);
#71=ORIENTED_EDGE('',*,*,#293,.T.);
#72=ORIENTED_EDGE('',*,*,#294,.T.);
#73=ORIENTED_EDGE('',*,*,#295,.T.);
#74=ORIENTED_EDGE('',*,*,#270,.T.);
#75=ORIENTED_EDGE('',*,*,#296,.T.);
#76=ORIENTED_EDGE('',*,*,#297,.T.);
#77=ORIENTED_EDGE('',*,*,#298,.F.);
#78=ORIENTED_EDGE('',*,*,#274,.T.);
#79=ORIENTED_EDGE('',*,*,#299,.T.);
#80=ORIENTED_EDGE('',*,*,#258,.F.);
#81=ORIENTED_EDGE('',*,*,#300,.T.);
#82=ORIENTED_EDGE('',*,*,#292,.F.);
#83=ORIENTED_EDGE('',*,*,#301,.T.);
#84=ORIENTED_EDGE('',*,*,#290,.T.);
#85=ORIENTED_EDGE('',*,*,#302,.T.);
#86=ORIENTED_EDGE('',*,*,#282,.F.);
#87=ORIENTED_EDGE('',*,*,#303,.T.);
#88=ORIENTED_EDGE('',*,*,#304,.T.);
#89=ORIENTED_EDGE('',*,*,#305,.T.);
#90=ORIENTED_EDGE('',*,*,#306,.F.);
#91=ORIENTED_EDGE('',*,*,#307,.T.);
#92=ORIENTED_EDGE('',*,*,#280,.T.);
#93=ORIENTED_EDGE('',*,*,#308,.T.);
#94=ORIENTED_EDGE('',*,*,#309,.F.);
#95=ORIENTED_EDGE('',*,*,#310,.T.);
#96=ORIENTED_EDGE('',*,*,#286,.T.);
#97=ORIENTED_EDGE('',*,*,#311,.T.);
#98=ORIENTED_EDGE('',*,*,#312,.T.);
#99=ORIENTED_EDGE('',*,*,#313,.T.);
#100=ORIENTED_EDGE('',*,*,#284,.F.);
#101=ORIENTED_EDGE('',*,*,#314,.T.);
#102=ORIENTED_EDGE('',*,*,#304,.F.);
#103=ORIENTED_EDGE('',*,*,#315,.T.);
#104=ORIENTED_EDGE('',*,*,#306,.T.);
#105=ORIENTED_EDGE('',*,*,#316,.T.);
#106=ORIENTED_EDGE('',*,*,#309,.T.);
#107=ORIENTED_EDGE('',*,*,#317,.T.);
#108=ORIENTED_EDGE('',*,*,#312,.F.);
#109=ORIENTED_EDGE('',*,*,#318,.T.);
#110=ORIENTED_EDGE('',*,*,#315,.F.);
#111=ORIENTED_EDGE('',*,*,#303,.F.);
#112=ORIENTED_EDGE('',*,*,#281,.F.);
#113=ORIENTED_EDGE('',*,*,#307,.F.);
#114=ORIENTED_EDGE('',*,*,#316,.F.);
#115=ORIENTED_EDGE('',*,*,#308,.F.);
#116=ORIENTED_EDGE('',*,*,#287,.F.);
#117=ORIENTED_EDGE('',*,*,#310,.F.);
#118=ORIENTED_EDGE('',*,*,#317,.F.);
#119=ORIENTED_EDGE('',*,*,#311,.F.);
#120=ORIENTED_EDGE('',*,*,#285,.F.);
#121=ORIENTED_EDGE('',*,*,#313,.F.);
#122=ORIENTED_EDGE('',*,*,#318,.F.);
#123=ORIENTED_EDGE('',*,*,#314,.F.);
#124=ORIENTED_EDGE('',*,*,#283,.F.);
#125=ORIENTED_EDGE('',*,*,#305,.F.);
#126=ORIENTED_EDGE('',*,*,#301,.F.);
#127=ORIENTED_EDGE('',*,*,#295,.F.);
#128=ORIENTED_EDGE('',*,*,#319,.F.);
#129=ORIENTED_EDGE('',*,*,#291,.F.);
#130=ORIENTED_EDGE('',*,*,#300,.F.);
#131=ORIENTED_EDGE('',*,*,#261,.F.);
#132=ORIENTED_EDGE('',*,*,#320,.F.);
#133=ORIENTED_EDGE('',*,*,#293,.F.);
#134=ORIENTED_EDGE('',*,*,#321,.F.);
#135=ORIENTED_EDGE('',*,*,#294,.F.);
#136=ORIENTED_EDGE('',*,*,#322,.F.);
#137=ORIENTED_EDGE('',*,*,#276,.F.);
#138=ORIENTED_EDGE('',*,*,#319,.T.);
#139=ORIENTED_EDGE('',*,*,#321,.T.);
#140=ORIENTED_EDGE('',*,*,#323,.F.);
#141=ORIENTED_EDGE('',*,*,#322,.T.);
#142=ORIENTED_EDGE('',*,*,#320,.T.);
#143=ORIENTED_EDGE('',*,*,#324,.F.);
#144=ORIENTED_EDGE('',*,*,#323,.T.);
#145=ORIENTED_EDGE('',*,*,#279,.F.);
#146=ORIENTED_EDGE('',*,*,#325,.F.);
#147=ORIENTED_EDGE('',*,*,#288,.F.);
#148=ORIENTED_EDGE('',*,*,#302,.F.);
#149=ORIENTED_EDGE('',*,*,#289,.F.);
#150=ORIENTED_EDGE('',*,*,#326,.F.);
#151=ORIENTED_EDGE('',*,*,#271,.F.);
#152=ORIENTED_EDGE('',*,*,#299,.F.);
#153=ORIENTED_EDGE('',*,*,#273,.F.);
#154=ORIENTED_EDGE('',*,*,#327,.F.);
#155=ORIENTED_EDGE('',*,*,#259,.F.);
#156=ORIENTED_EDGE('',*,*,#324,.T.);
#157=ORIENTED_EDGE('',*,*,#260,.F.);
#158=ORIENTED_EDGE('',*,*,#328,.F.);
#159=ORIENTED_EDGE('',*,*,#277,.F.);
#160=ORIENTED_EDGE('',*,*,#326,.T.);
#161=ORIENTED_EDGE('',*,*,#325,.T.);
#162=ORIENTED_EDGE('',*,*,#329,.F.);
#163=ORIENTED_EDGE('',*,*,#328,.T.);
#164=ORIENTED_EDGE('',*,*,#327,.T.);
#165=ORIENTED_EDGE('',*,*,#330,.F.);
#166=ORIENTED_EDGE('',*,*,#329,.T.);
#167=ORIENTED_EDGE('',*,*,#278,.F.);
#168=ORIENTED_EDGE('',*,*,#330,.T.);
#169=ORIENTED_EDGE('',*,*,#272,.F.);
#170=ORIENTED_EDGE('',*,*,#331,.F.);
#171=ORIENTED_EDGE('',*,*,#332,.T.);
#172=ORIENTED_EDGE('',*,*,#333,.T.);
#173=ORIENTED_EDGE('',*,*,#334,.T.);
#174=ORIENTED_EDGE('',*,*,#335,.T.);
#175=ORIENTED_EDGE('',*,*,#268,.F.);
#176=ORIENTED_EDGE('',*,*,#336,.T.);
#177=ORIENTED_EDGE('',*,*,#337,.F.);
#178=ORIENTED_EDGE('',*,*,#338,.T.);
#179=ORIENTED_EDGE('',*,*,#339,.F.);
#180=ORIENTED_EDGE('',*,*,#340,.T.);
#181=ORIENTED_EDGE('',*,*,#337,.T.);
#182=ORIENTED_EDGE('',*,*,#341,.T.);
#183=ORIENTED_EDGE('',*,*,#342,.F.);
#184=ORIENTED_EDGE('',*,*,#343,.T.);
#185=ORIENTED_EDGE('',*,*,#344,.F.);
#186=ORIENTED_EDGE('',*,*,#345,.T.);
#187=ORIENTED_EDGE('',*,*,#339,.T.);
#188=ORIENTED_EDGE('',*,*,#346,.T.);
#189=ORIENTED_EDGE('',*,*,#347,.T.);
#190=ORIENTED_EDGE('',*,*,#334,.F.);
#191=ORIENTED_EDGE('',*,*,#348,.T.);
#192=ORIENTED_EDGE('',*,*,#342,.T.);
#193=ORIENTED_EDGE('',*,*,#349,.T.);
#194=ORIENTED_EDGE('',*,*,#344,.T.);
#195=ORIENTED_EDGE('',*,*,#350,.T.);
#196=ORIENTED_EDGE('',*,*,#332,.F.);
#197=ORIENTED_EDGE('',*,*,#351,.T.);
#198=ORIENTED_EDGE('',*,*,#336,.F.);
#199=ORIENTED_EDGE('',*,*,#275,.F.);
#200=ORIENTED_EDGE('',*,*,#298,.T.);
#201=ORIENTED_EDGE('',*,*,#352,.T.);
#202=ORIENTED_EDGE('',*,*,#341,.F.);
#203=ORIENTED_EDGE('',*,*,#352,.F.);
#204=ORIENTED_EDGE('',*,*,#297,.F.);
#205=ORIENTED_EDGE('',*,*,#353,.T.);
#206=ORIENTED_EDGE('',*,*,#346,.F.);
#207=ORIENTED_EDGE('',*,*,#335,.F.);
#208=ORIENTED_EDGE('',*,*,#349,.F.);
#209=ORIENTED_EDGE('',*,*,#347,.F.);
#210=ORIENTED_EDGE('',*,*,#353,.F.);
#211=ORIENTED_EDGE('',*,*,#296,.F.);
#212=ORIENTED_EDGE('',*,*,#269,.F.);
#213=ORIENTED_EDGE('',*,*,#354,.F.);
#214=ORIENTED_EDGE('',*,*,#331,.T.);
#215=ORIENTED_EDGE('',*,*,#354,.T.);
#216=ORIENTED_EDGE('',*,*,#333,.F.);
#217=ORIENTED_EDGE('',*,*,#350,.F.);
#218=ORIENTED_EDGE('',*,*,#343,.F.);
#219=ORIENTED_EDGE('',*,*,#348,.F.);
#220=ORIENTED_EDGE('',*,*,#338,.F.);
#221=ORIENTED_EDGE('',*,*,#340,.F.);
#222=ORIENTED_EDGE('',*,*,#345,.F.);
#223=ORIENTED_EDGE('',*,*,#351,.F.);
#224=ORIENTED_EDGE('',*,*,#262,.F.);
#225=ORIENTED_EDGE('',*,*,#355,.F.);
#226=ORIENTED_EDGE('',*,*,#356,.T.);
#227=ORIENTED_EDGE('',*,*,#357,.T.);
#228=ORIENTED_EDGE('',*,*,#267,.F.);
#229=ORIENTED_EDGE('',*,*,#358,.F.);
#230=ORIENTED_EDGE('',*,*,#359,.T.);
#231=ORIENTED_EDGE('',*,*,#355,.T.);
#232=ORIENTED_EDGE('',*,*,#266,.F.);
#233=ORIENTED_EDGE('',*,*,#360,.F.);
#234=ORIENTED_EDGE('',*,*,#361,.T.);
#235=ORIENTED_EDGE('',*,*,#358,.T.);
#236=ORIENTED_EDGE('',*,*,#265,.F.);
#237=ORIENTED_EDGE('',*,*,#362,.F.);
#238=ORIENTED_EDGE('',*,*,#363,.T.);
#239=ORIENTED_EDGE('',*,*,#360,.T.);
#240=ORIENTED_EDGE('',*,*,#264,.F.);
#241=ORIENTED_EDGE('',*,*,#364,.F.);
#242=ORIENTED_EDGE('',*,*,#365,.T.);
#243=ORIENTED_EDGE('',*,*,#362,.T.);
#244=ORIENTED_EDGE('',*,*,#263,.F.);
#245=ORIENTED_EDGE('',*,*,#357,.F.);
#246=ORIENTED_EDGE('',*,*,#366,.T.);
#247=ORIENTED_EDGE('',*,*,#364,.T.);
#248=ORIENTED_EDGE('',*,*,#367,.T.);
#249=ORIENTED_EDGE('',*,*,#368,.F.);
#250=ORIENTED_EDGE('',*,*,#356,.F.);
#251=ORIENTED_EDGE('',*,*,#359,.F.);
#252=ORIENTED_EDGE('',*,*,#361,.F.);
#253=ORIENTED_EDGE('',*,*,#363,.F.);
#254=ORIENTED_EDGE('',*,*,#365,.F.);
#255=ORIENTED_EDGE('',*,*,#366,.F.);
#256=ORIENTED_EDGE('',*,*,#367,.F.);
#257=ORIENTED_EDGE('',*,*,#368,.T.);
#258=EDGE_CURVE('',#369,#370,#440,.T.);
#259=EDGE_CURVE('',#370,#371,#441,.T.);
#260=EDGE_CURVE('',#371,#372,#442,.T.);
#261=EDGE_CURVE('',#372,#369,#443,.T.);
#262=EDGE_CURVE('',#373,#374,#444,.T.);
#263=EDGE_CURVE('',#374,#375,#445,.T.);
#264=EDGE_CURVE('',#375,#376,#446,.T.);
#265=EDGE_CURVE('',#376,#377,#447,.T.);
#266=EDGE_CURVE('',#377,#378,#448,.T.);
#267=EDGE_CURVE('',#378,#373,#449,.T.);
#268=EDGE_CURVE('',#379,#380,#450,.T.);
#269=EDGE_CURVE('',#380,#381,#451,.T.);
#270=EDGE_CURVE('',#382,#381,#452,.T.);
#271=EDGE_CURVE('',#382,#383,#453,.T.);
#272=EDGE_CURVE('',#383,#384,#454,.T.);
#273=EDGE_CURVE('',#384,#385,#455,.T.);
#274=EDGE_CURVE('',#386,#385,#456,.T.);
#275=EDGE_CURVE('',#386,#379,#457,.T.);
#276=EDGE_CURVE('',#387,#388,#458,.T.);
#277=EDGE_CURVE('',#388,#389,#459,.T.);
#278=EDGE_CURVE('',#389,#390,#460,.T.);
#279=EDGE_CURVE('',#390,#387,#461,.T.);
#280=EDGE_CURVE('',#391,#392,#462,.T.);
#281=EDGE_CURVE('',#391,#393,#20,.F.);
#282=EDGE_CURVE('',#393,#394,#463,.T.);
#283=EDGE_CURVE('',#394,#395,#21,.F.);
#284=EDGE_CURVE('',#395,#396,#464,.T.);
#285=EDGE_CURVE('',#396,#397,#22,.F.);
#286=EDGE_CURVE('',#398,#397,#465,.T.);
#287=EDGE_CURVE('',#398,#392,#23,.F.);
#288=EDGE_CURVE('',#399,#400,#466,.T.);
#289=EDGE_CURVE('',#400,#401,#467,.T.);
#290=EDGE_CURVE('',#402,#401,#468,.T.);
#291=EDGE_CURVE('',#402,#399,#469,.T.);
#292=EDGE_CURVE('',#403,#404,#470,.T.);
#293=EDGE_CURVE('',#404,#405,#471,.T.);
#294=EDGE_CURVE('',#405,#406,#472,.T.);
#295=EDGE_CURVE('',#406,#403,#473,.T.);
#296=EDGE_CURVE('',#381,#407,#474,.F.);
#297=EDGE_CURVE('',#407,#408,#475,.T.);
#298=EDGE_CURVE('',#386,#408,#476,.F.);
#299=EDGE_CURVE('',#385,#370,#477,.T.);
#300=EDGE_CURVE('',#369,#404,#478,.F.);
#301=EDGE_CURVE('',#403,#402,#479,.T.);
#302=EDGE_CURVE('',#401,#382,#480,.F.);
#303=EDGE_CURVE('',#393,#409,#481,.F.);
#304=EDGE_CURVE('',#409,#410,#482,.T.);
#305=EDGE_CURVE('',#410,#394,#483,.T.);
#306=EDGE_CURVE('',#411,#412,#484,.T.);
#307=EDGE_CURVE('',#411,#391,#485,.T.);
#308=EDGE_CURVE('',#392,#412,#486,.F.);
#309=EDGE_CURVE('',#413,#414,#487,.T.);
#310=EDGE_CURVE('',#413,#398,#488,.T.);
#311=EDGE_CURVE('',#397,#414,#489,.F.);
#312=EDGE_CURVE('',#415,#416,#490,.T.);
#313=EDGE_CURVE('',#416,#396,#491,.T.);
#314=EDGE_CURVE('',#395,#415,#492,.F.);
#315=EDGE_CURVE('',#409,#411,#24,.T.);
#316=EDGE_CURVE('',#412,#413,#25,.T.);
#317=EDGE_CURVE('',#414,#416,#26,.T.);
#318=EDGE_CURVE('',#415,#410,#27,.T.);
#319=EDGE_CURVE('',#399,#406,#493,.T.);
#320=EDGE_CURVE('',#405,#372,#494,.F.);
#321=EDGE_CURVE('',#406,#387,#495,.T.);
#322=EDGE_CURVE('',#388,#405,#496,.T.);
#323=EDGE_CURVE('',#399,#387,#497,.T.);
#324=EDGE_CURVE('',#388,#372,#498,.F.);
#325=EDGE_CURVE('',#400,#390,#499,.F.);
#326=EDGE_CURVE('',#383,#400,#500,.F.);
#327=EDGE_CURVE('',#371,#384,#501,.T.);
#328=EDGE_CURVE('',#389,#371,#502,.T.);
#329=EDGE_CURVE('',#383,#390,#503,.T.);
#330=EDGE_CURVE('',#389,#384,#504,.T.);
#331=EDGE_CURVE('',#417,#417,#28,.T.);
#332=EDGE_CURVE('',#418,#419,#505,.T.);
#333=EDGE_CURVE('',#419,#420,#29,.T.);
#334=EDGE_CURVE('',#420,#421,#506,.T.);
#335=EDGE_CURVE('',#421,#380,#507,.F.);
#336=EDGE_CURVE('',#379,#422,#508,.T.);
#337=EDGE_CURVE('',#423,#422,#509,.T.);
#338=EDGE_CURVE('',#423,#418,#30,.T.);
#339=EDGE_CURVE('',#424,#425,#510,.T.);
#340=EDGE_CURVE('',#424,#423,#511,.F.);
#341=EDGE_CURVE('',#422,#425,#512,.T.);
#342=EDGE_CURVE('',#426,#427,#513,.T.);
#343=EDGE_CURVE('',#426,#428,#31,.F.);
#344=EDGE_CURVE('',#429,#428,#514,.T.);
#345=EDGE_CURVE('',#429,#424,#32,.F.);
#346=EDGE_CURVE('',#425,#430,#515,.T.);
#347=EDGE_CURVE('',#430,#427,#516,.F.);
#348=EDGE_CURVE('',#420,#426,#517,.T.);
#349=EDGE_CURVE('',#427,#421,#518,.T.);
#350=EDGE_CURVE('',#428,#419,#519,.F.);
#351=EDGE_CURVE('',#418,#429,#520,.T.);
#352=EDGE_CURVE('',#408,#425,#521,.T.);
#353=EDGE_CURVE('',#407,#430,#522,.F.);
#354=EDGE_CURVE('',#431,#431,#33,.T.);
#355=EDGE_CURVE('',#432,#373,#523,.T.);
#356=EDGE_CURVE('',#432,#433,#524,.T.);
#357=EDGE_CURVE('',#433,#374,#525,.T.);
#358=EDGE_CURVE('',#434,#378,#526,.T.);
#359=EDGE_CURVE('',#434,#432,#527,.T.);
#360=EDGE_CURVE('',#435,#377,#528,.T.);
#361=EDGE_CURVE('',#435,#434,#529,.T.);
#362=EDGE_CURVE('',#436,#376,#530,.T.);
#363=EDGE_CURVE('',#436,#435,#531,.T.);
#364=EDGE_CURVE('',#437,#375,#532,.T.);
#365=EDGE_CURVE('',#437,#436,#533,.T.);
#366=EDGE_CURVE('',#433,#437,#534,.T.);
#367=EDGE_CURVE('',#438,#438,#34,.T.);
#368=EDGE_CURVE('',#439,#439,#35,.T.);
#369=VERTEX_POINT('',#1131);
#370=VERTEX_POINT('',#1132);
#371=VERTEX_POINT('',#1134);
#372=VERTEX_POINT('',#1136);
#373=VERTEX_POINT('',#1139);
#374=VERTEX_POINT('',#1140);
#375=VERTEX_POINT('',#1142);
#376=VERTEX_POINT('',#1144);
#377=VERTEX_POINT('',#1146);
#378=VERTEX_POINT('',#1148);
#379=VERTEX_POINT('',#1152);
#380=VERTEX_POINT('',#1153);
#381=VERTEX_POINT('',#1155);
#382=VERTEX_POINT('',#1157);
#383=VERTEX_POINT('',#1159);
#384=VERTEX_POINT('',#1161);
#385=VERTEX_POINT('',#1163);
#386=VERTEX_POINT('',#1165);
#387=VERTEX_POINT('',#1169);
#388=VERTEX_POINT('',#1170);
#389=VERTEX_POINT('',#1172);
#390=VERTEX_POINT('',#1174);
#391=VERTEX_POINT('',#1177);
#392=VERTEX_POINT('',#1178);
#393=VERTEX_POINT('',#1180);
#394=VERTEX_POINT('',#1182);
#395=VERTEX_POINT('',#1184);
#396=VERTEX_POINT('',#1186);
#397=VERTEX_POINT('',#1188);
#398=VERTEX_POINT('',#1190);
#399=VERTEX_POINT('',#1194);
#400=VERTEX_POINT('',#1195);
#401=VERTEX_POINT('',#1197);
#402=VERTEX_POINT('',#1199);
#403=VERTEX_POINT('',#1203);
#404=VERTEX_POINT('',#1204);
#405=VERTEX_POINT('',#1206);
#406=VERTEX_POINT('',#1208);
#407=VERTEX_POINT('',#1212);
#408=VERTEX_POINT('',#1214);
#409=VERTEX_POINT('',#1222);
#410=VERTEX_POINT('',#1224);
#411=VERTEX_POINT('',#1228);
#412=VERTEX_POINT('',#1229);
#413=VERTEX_POINT('',#1234);
#414=VERTEX_POINT('',#1235);
#415=VERTEX_POINT('',#1240);
#416=VERTEX_POINT('',#1241);
#417=VERTEX_POINT('',#1279);
#418=VERTEX_POINT('',#1281);
#419=VERTEX_POINT('',#1282);
#420=VERTEX_POINT('',#1284);
#421=VERTEX_POINT('',#1286);
#422=VERTEX_POINT('',#1289);
#423=VERTEX_POINT('',#1291);
#424=VERTEX_POINT('',#1295);
#425=VERTEX_POINT('',#1296);
#426=VERTEX_POINT('',#1301);
#427=VERTEX_POINT('',#1302);
#428=VERTEX_POINT('',#1304);
#429=VERTEX_POINT('',#1306);
#430=VERTEX_POINT('',#1309);
#431=VERTEX_POINT('',#1324);
#432=VERTEX_POINT('',#1330);
#433=VERTEX_POINT('',#1332);
#434=VERTEX_POINT('',#1336);
#435=VERTEX_POINT('',#1340);
#436=VERTEX_POINT('',#1344);
#437=VERTEX_POINT('',#1348);
#438=VERTEX_POINT('',#1354);
#439=VERTEX_POINT('',#1356);
#440=LINE('',#1130,#535);
#441=LINE('',#1133,#536);
#442=LINE('',#1135,#537);
#443=LINE('',#1137,#538);
#444=LINE('',#1138,#539);
#445=LINE('',#1141,#540);
#446=LINE('',#1143,#541);
#447=LINE('',#1145,#542);
#448=LINE('',#1147,#543);
#449=LINE('',#1149,#544);
#450=LINE('',#1151,#545);
#451=LINE('',#1154,#546);
#452=LINE('',#1156,#547);
#453=LINE('',#1158,#548);
#454=LINE('',#1160,#549);
#455=LINE('',#1162,#550);
#456=LINE('',#1164,#551);
#457=LINE('',#1166,#552);
#458=LINE('',#1168,#553);
#459=LINE('',#1171,#554);
#460=LINE('',#1173,#555);
#461=LINE('',#1175,#556);
#462=LINE('',#1176,#557);
#463=LINE('',#1181,#558);
#464=LINE('',#1185,#559);
#465=LINE('',#1189,#560);
#466=LINE('',#1193,#561);
#467=LINE('',#1196,#562);
#468=LINE('',#1198,#563);
#469=LINE('',#1200,#564);
#470=LINE('',#1202,#565);
#471=LINE('',#1205,#566);
#472=LINE('',#1207,#567);
#473=LINE('',#1209,#568);
#474=LINE('',#1211,#569);
#475=LINE('',#1213,#570);
#476=LINE('',#1215,#571);
#477=LINE('',#1216,#572);
#478=LINE('',#1217,#573);
#479=LINE('',#1218,#574);
#480=LINE('',#1219,#575);
#481=LINE('',#1221,#576);
#482=LINE('',#1223,#577);
#483=LINE('',#1225,#578);
#484=LINE('',#1227,#579);
#485=LINE('',#1230,#580);
#486=LINE('',#1231,#581);
#487=LINE('',#1233,#582);
#488=LINE('',#1236,#583);
#489=LINE('',#1237,#584);
#490=LINE('',#1239,#585);
#491=LINE('',#1242,#586);
#492=LINE('',#1243,#587);
#493=LINE('',#1254,#588);
#494=LINE('',#1256,#589);
#495=LINE('',#1258,#590);
#496=LINE('',#1259,#591);
#497=LINE('',#1261,#592);
#498=LINE('',#1263,#593);
#499=LINE('',#1265,#594);
#500=LINE('',#1267,#595);
#501=LINE('',#1269,#596);
#502=LINE('',#1271,#597);
#503=LINE('',#1273,#598);
#504=LINE('',#1275,#599);
#505=LINE('',#1280,#600);
#506=LINE('',#1285,#601);
#507=LINE('',#1287,#602);
#508=LINE('',#1288,#603);
#509=LINE('',#1290,#604);
#510=LINE('',#1294,#605);
#511=LINE('',#1297,#606);
#512=LINE('',#1298,#607);
#513=LINE('',#1300,#608);
#514=LINE('',#1305,#609);
#515=LINE('',#1308,#610);
#516=LINE('',#1310,#611);
#517=LINE('',#1312,#612);
#518=LINE('',#1313,#613);
#519=LINE('',#1315,#614);
#520=LINE('',#1316,#615);
#521=LINE('',#1318,#616);
#522=LINE('',#1320,#617);
#523=LINE('',#1329,#618);
#524=LINE('',#1331,#619);
#525=LINE('',#1333,#620);
#526=LINE('',#1335,#621);
#527=LINE('',#1337,#622);
#528=LINE('',#1339,#623);
#529=LINE('',#1341,#624);
#530=LINE('',#1343,#625);
#531=LINE('',#1345,#626);
#532=LINE('',#1347,#627);
#533=LINE('',#1349,#628);
#534=LINE('',#1351,#629);
#535=VECTOR('',#907,1.);
#536=VECTOR('',#908,1.);
#537=VECTOR('',#909,1.);
#538=VECTOR('',#910,1.);
#539=VECTOR('',#911,1.);
#540=VECTOR('',#912,1.);
#541=VECTOR('',#913,1.);
#542=VECTOR('',#914,1.);
#543=VECTOR('',#915,1.);
#544=VECTOR('',#916,1.);
#545=VECTOR('',#919,1.);
#546=VECTOR('',#920,1.);
#547=VECTOR('',#921,1.);
#548=VECTOR('',#922,1.);
#549=VECTOR('',#923,1.);
#550=VECTOR('',#924,1.);
#551=VECTOR('',#925,1.);
#552=VECTOR('',#926,1.);
#553=VECTOR('',#929,1.);
#554=VECTOR('',#930,1.);
#555=VECTOR('',#931,1.);
#556=VECTOR('',#932,1.);
#557=VECTOR('',#933,1.);
#558=VECTOR('',#936,1.);
#559=VECTOR('',#939,1.);
#560=VECTOR('',#942,1.);
#561=VECTOR('',#947,1.);
#562=VECTOR('',#948,1.);
#563=VECTOR('',#949,1.);
#564=VECTOR('',#950,1.);
#565=VECTOR('',#953,1.);
#566=VECTOR('',#954,1.);
#567=VECTOR('',#955,1.);
#568=VECTOR('',#956,1.);
#569=VECTOR('',#959,1.);
#570=VECTOR('',#960,1.);
#571=VECTOR('',#961,1.);
#572=VECTOR('',#962,1.);
#573=VECTOR('',#963,1.);
#574=VECTOR('',#964,1.);
#575=VECTOR('',#965,1.);
#576=VECTOR('',#968,1.);
#577=VECTOR('',#969,1.);
#578=VECTOR('',#970,1.);
#579=VECTOR('',#973,1.);
#580=VECTOR('',#974,1.);
#581=VECTOR('',#975,1.);
#582=VECTOR('',#978,1.);
#583=VECTOR('',#979,1.);
#584=VECTOR('',#980,1.);
#585=VECTOR('',#983,1.);
#586=VECTOR('',#984,1.);
#587=VECTOR('',#985,1.);
#588=VECTOR('',#1006,1.);
#589=VECTOR('',#1009,1.);
#590=VECTOR('',#1012,1.);
#591=VECTOR('',#1013,1.);
#592=VECTOR('',#1016,1.);
#593=VECTOR('',#1019,1.);
#594=VECTOR('',#1022,1.);
#595=VECTOR('',#1025,1.);
#596=VECTOR('',#1028,1.);
#597=VECTOR('',#1031,1.);
#598=VECTOR('',#1034,1.);
#599=VECTOR('',#1037,1.);
#600=VECTOR('',#1044,1.);
#601=VECTOR('',#1047,1.);
#602=VECTOR('',#1048,1.);
#603=VECTOR('',#1049,1.);
#604=VECTOR('',#1050,1.);
#605=VECTOR('',#1055,1.);
#606=VECTOR('',#1056,1.);
#607=VECTOR('',#1057,1.);
#608=VECTOR('',#1060,1.);
#609=VECTOR('',#1063,1.);
#610=VECTOR('',#1066,1.);
#611=VECTOR('',#1067,1.);
#612=VECTOR('',#1070,1.);
#613=VECTOR('',#1071,1.);
#614=VECTOR('',#1074,1.);
#615=VECTOR('',#1075,1.);
#616=VECTOR('',#1078,1.);
#617=VECTOR('',#1081,1.);
#618=VECTOR('',#1096,1.);
#619=VECTOR('',#1097,1.);
#620=VECTOR('',#1098,1.);
#621=VECTOR('',#1101,1.);
#622=VECTOR('',#1102,1.);
#623=VECTOR('',#1105,1.);
#624=VECTOR('',#1106,1.);
#625=VECTOR('',#1109,1.);
#626=VECTOR('',#1110,1.);
#627=VECTOR('',#1113,1.);
#628=VECTOR('',#1114,1.);
#629=VECTOR('',#1117,1.);
#630=EDGE_LOOP('',(#36,#37,#38,#39));
#631=EDGE_LOOP('',(#40,#41,#42,#43,#44,#45));
#632=EDGE_LOOP('',(#46,#47,#48,#49,#50,#51,#52,#53));
#633=EDGE_LOOP('',(#54,#55,#56,#57));
#634=EDGE_LOOP('',(#58,#59,#60,#61,#62,#63,#64,#65));
#635=EDGE_LOOP('',(#66,#67,#68,#69));
#636=EDGE_LOOP('',(#70,#71,#72,#73));
#637=EDGE_LOOP('',(#74,#75,#76,#77,#78,#79,#80,#81,#82,#83,#84,#85));
#638=EDGE_LOOP('',(#86,#87,#88,#89));
#639=EDGE_LOOP('',(#90,#91,#92,#93));
#640=EDGE_LOOP('',(#94,#95,#96,#97));
#641=EDGE_LOOP('',(#98,#99,#100,#101));
#642=EDGE_LOOP('',(#102,#103,#104,#105,#106,#107,#108,#109));
#643=EDGE_LOOP('',(#110,#111,#112,#113));
#644=EDGE_LOOP('',(#114,#115,#116,#117));
#645=EDGE_LOOP('',(#118,#119,#120,#121));
#646=EDGE_LOOP('',(#122,#123,#124,#125));
#647=EDGE_LOOP('',(#126,#127,#128,#129));
#648=EDGE_LOOP('',(#130,#131,#132,#133));
#649=EDGE_LOOP('',(#134,#135,#136,#137));
#650=EDGE_LOOP('',(#138,#139,#140));
#651=EDGE_LOOP('',(#141,#142,#143));
#652=EDGE_LOOP('',(#144,#145,#146,#147));
#653=EDGE_LOOP('',(#148,#149,#150,#151));
#654=EDGE_LOOP('',(#152,#153,#154,#155));
#655=EDGE_LOOP('',(#156,#157,#158,#159));
#656=EDGE_LOOP('',(#160,#161,#162));
#657=EDGE_LOOP('',(#163,#164,#165));
#658=EDGE_LOOP('',(#166,#167,#168,#169));
#659=EDGE_LOOP('',(#170));
#660=EDGE_LOOP('',(#171,#172,#173,#174,#175,#176,#177,#178));
#661=EDGE_LOOP('',(#179,#180,#181,#182));
#662=EDGE_LOOP('',(#183,#184,#185,#186,#187,#188,#189));
#663=EDGE_LOOP('',(#190,#191,#192,#193));
#664=EDGE_LOOP('',(#194,#195,#196,#197));
#665=EDGE_LOOP('',(#198,#199,#200,#201,#202));
#666=EDGE_LOOP('',(#203,#204,#205,#206));
#667=EDGE_LOOP('',(#207,#208,#209,#210,#211,#212));
#668=EDGE_LOOP('',(#213));
#669=EDGE_LOOP('',(#214));
#670=EDGE_LOOP('',(#215));
#671=EDGE_LOOP('',(#216,#217,#218,#219));
#672=EDGE_LOOP('',(#220,#221,#222,#223));
#673=EDGE_LOOP('',(#224,#225,#226,#227));
#674=EDGE_LOOP('',(#228,#229,#230,#231));
#675=EDGE_LOOP('',(#232,#233,#234,#235));
#676=EDGE_LOOP('',(#236,#237,#238,#239));
#677=EDGE_LOOP('',(#240,#241,#242,#243));
#678=EDGE_LOOP('',(#244,#245,#246,#247));
#679=EDGE_LOOP('',(#248));
#680=EDGE_LOOP('',(#249));
#681=EDGE_LOOP('',(#250,#251,#252,#253,#254,#255));
#682=EDGE_LOOP('',(#256));
#683=EDGE_LOOP('',(#257));
#684=FACE_BOUND('',#630,.T.);
#685=FACE_BOUND('',#631,.T.);
#686=FACE_BOUND('',#632,.T.);
#687=FACE_BOUND('',#633,.T.);
#688=FACE_BOUND('',#634,.T.);
#689=FACE_BOUND('',#635,.T.);
#690=FACE_BOUND('',#636,.T.);
#691=FACE_BOUND('',#637,.T.);
#692=FACE_BOUND('',#638,.T.);
#693=FACE_BOUND('',#639,.T.);
#694=FACE_BOUND('',#640,.T.);
#695=FACE_BOUND('',#641,.T.);
#696=FACE_BOUND('',#642,.T.);
#697=FACE_BOUND('',#643,.T.);
#698=FACE_BOUND('',#644,.T.);
#699=FACE_BOUND('',#645,.T.);
#700=FACE_BOUND('',#646,.T.);
#701=FACE_BOUND('',#647,.T.);
#702=FACE_BOUND('',#648,.T.);
#703=FACE_BOUND('',#649,.T.);
#704=FACE_BOUND('',#650,.T.);
#705=FACE_BOUND('',#651,.T.);
#706=FACE_BOUND('',#652,.T.);
#707=FACE_BOUND('',#653,.T.);
#708=FACE_BOUND('',#654,.T.);
#709=FACE_BOUND('',#655,.T.);
#710=FACE_BOUND('',#656,.T.);
#711=FACE_BOUND('',#657,.T.);
#712=FACE_BOUND('',#658,.T.);
#713=FACE_BOUND('',#659,.T.);
#714=FACE_BOUND('',#660,.T.);
#715=FACE_BOUND('',#661,.T.);
#716=FACE_BOUND('',#662,.T.);
#717=FACE_BOUND('',#663,.T.);
#718=FACE_BOUND('',#664,.T.);
#719=FACE_BOUND('',#665,.T.);
#720=FACE_BOUND('',#666,.T.);
#721=FACE_BOUND('',#667,.T.);
#722=FACE_BOUND('',#668,.T.);
#723=FACE_BOUND('',#669,.T.);
#724=FACE_BOUND('',#670,.T.);
#725=FACE_BOUND('',#671,.T.);
#726=FACE_BOUND('',#672,.T.);
#727=FACE_BOUND('',#673,.T.);
#728=FACE_BOUND('',#674,.T.);
#729=FACE_BOUND('',#675,.T.);
#730=FACE_BOUND('',#676,.T.);
#731=FACE_BOUND('',#677,.T.);
#732=FACE_BOUND('',#678,.T.);
#733=FACE_BOUND('',#679,.T.);
#734=FACE_BOUND('',#680,.T.);
#735=FACE_BOUND('',#681,.T.);
#736=FACE_BOUND('',#682,.T.);
#737=FACE_BOUND('',#683,.T.);
#738=PLANE('',#839);
#739=PLANE('',#840);
#740=PLANE('',#841);
#741=PLANE('',#846);
#742=PLANE('',#847);
#743=PLANE('',#848);
#744=PLANE('',#849);
#745=PLANE('',#850);
#746=PLANE('',#851);
#747=PLANE('',#852);
#748=PLANE('',#853);
#749=PLANE('',#862);
#750=PLANE('',#863);
#751=PLANE('',#864);
#752=PLANE('',#865);
#753=PLANE('',#866);
#754=PLANE('',#867);
#755=PLANE('',#868);
#756=PLANE('',#869);
#757=PLANE('',#870);
#758=PLANE('',#871);
#759=PLANE('',#872);
#760=PLANE('',#873);
#761=PLANE('',#874);
#762=PLANE('',#878);
#763=PLANE('',#879);
#764=PLANE('',#882);
#765=PLANE('',#883);
#766=PLANE('',#884);
#767=PLANE('',#885);
#768=PLANE('',#886);
#769=PLANE('',#889);
#770=PLANE('',#892);
#771=PLANE('',#893);
#772=PLANE('',#894);
#773=PLANE('',#895);
#774=PLANE('',#896);
#775=PLANE('',#897);
#776=PLANE('',#901);
#777=PLANE('',#902);
#778=ADVANCED_FACE('',(#684,#685),#738,.F.);
#779=ADVANCED_FACE('',(#686),#739,.T.);
#780=ADVANCED_FACE('',(#687,#688),#740,.T.);
#781=ADVANCED_FACE('',(#689),#741,.T.);
#782=ADVANCED_FACE('',(#690),#742,.F.);
#783=ADVANCED_FACE('',(#691),#743,.F.);
#784=ADVANCED_FACE('',(#692),#744,.T.);
#785=ADVANCED_FACE('',(#693),#745,.F.);
#786=ADVANCED_FACE('',(#694),#746,.F.);
#787=ADVANCED_FACE('',(#695),#747,.T.);
#788=ADVANCED_FACE('',(#696),#748,.T.);
#789=ADVANCED_FACE('',(#697),#12,.F.);
#790=ADVANCED_FACE('',(#698),#13,.F.);
#791=ADVANCED_FACE('',(#699),#14,.F.);
#792=ADVANCED_FACE('',(#700),#15,.F.);
#793=ADVANCED_FACE('',(#701),#749,.T.);
#794=ADVANCED_FACE('',(#702),#750,.F.);
#795=ADVANCED_FACE('',(#703),#751,.T.);
#796=ADVANCED_FACE('',(#704),#752,.T.);
#797=ADVANCED_FACE('',(#705),#753,.T.);
#798=ADVANCED_FACE('',(#706),#754,.F.);
#799=ADVANCED_FACE('',(#707),#755,.F.);
#800=ADVANCED_FACE('',(#708),#756,.T.);
#801=ADVANCED_FACE('',(#709),#757,.T.);
#802=ADVANCED_FACE('',(#710),#758,.T.);
#803=ADVANCED_FACE('',(#711),#759,.T.);
#804=ADVANCED_FACE('',(#712),#760,.F.);
#805=ADVANCED_FACE('',(#713,#714),#761,.T.);
#806=ADVANCED_FACE('',(#715),#762,.F.);
#807=ADVANCED_FACE('',(#716),#763,.F.);
#808=ADVANCED_FACE('',(#717),#764,.T.);
#809=ADVANCED_FACE('',(#718),#765,.T.);
#810=ADVANCED_FACE('',(#719),#766,.F.);
#811=ADVANCED_FACE('',(#720),#767,.F.);
#812=ADVANCED_FACE('',(#721),#768,.T.);
#813=ADVANCED_FACE('',(#722,#723),#16,.F.);
#814=ADVANCED_FACE('',(#724),#769,.T.);
#815=ADVANCED_FACE('',(#725),#17,.T.);
#816=ADVANCED_FACE('',(#726),#18,.T.);
#817=ADVANCED_FACE('',(#727),#770,.T.);
#818=ADVANCED_FACE('',(#728),#771,.T.);
#819=ADVANCED_FACE('',(#729),#772,.T.);
#820=ADVANCED_FACE('',(#730),#773,.T.);
#821=ADVANCED_FACE('',(#731),#774,.T.);
#822=ADVANCED_FACE('',(#732),#775,.T.);
#823=ADVANCED_FACE('',(#733,#734),#19,.T.);
#824=ADVANCED_FACE('',(#735,#736),#776,.T.);
#825=ADVANCED_FACE('',(#737),#777,.F.);
#826=CLOSED_SHELL('',(#778,#779,#780,#781,#782,#783,#784,#785,#786,#787,
#788,#789,#790,#791,#792,#793,#794,#795,#796,#797,#798,#799,#800,#801,#802,
#803,#804,#805,#806,#807,#808,#809,#810,#811,#812,#813,#814,#815,#816,#817,
#818,#819,#820,#821,#822,#823,#824,#825));
#827=STYLED_ITEM('',(#828),#835);
#828=PRESENTATION_STYLE_ASSIGNMENT((#829));
#829=SURFACE_STYLE_USAGE(.BOTH.,#830);
#830=SURFACE_SIDE_STYLE('',(#831));
#831=SURFACE_STYLE_FILL_AREA(#832);
#832=FILL_AREA_STYLE('',(#833));
#833=FILL_AREA_STYLE_COLOUR('',#834);
#834=COLOUR_RGB('',0.615686274509804,0.811764705882353,0.929411764705882);
#835=MANIFOLD_SOLID_BREP('Part 1',#826);
#836=SHAPE_DEFINITION_REPRESENTATION(#1365,#837);
#837=SHAPE_REPRESENTATION('Part 1',(#838),#1360);
#838=AXIS2_PLACEMENT_3D('',#1128,#903,#904);
#839=AXIS2_PLACEMENT_3D('',#1129,#905,#906);
#840=AXIS2_PLACEMENT_3D('',#1150,#917,#918);
#841=AXIS2_PLACEMENT_3D('',#1167,#927,#928);
#842=AXIS2_PLACEMENT_3D('',#1179,#934,#935);
#843=AXIS2_PLACEMENT_3D('',#1183,#937,#938);
#844=AXIS2_PLACEMENT_3D('',#1187,#940,#941);
#845=AXIS2_PLACEMENT_3D('',#1191,#943,#944);
#846=AXIS2_PLACEMENT_3D('',#1192,#945,#946);
#847=AXIS2_PLACEMENT_3D('',#1201,#951,#952);
#848=AXIS2_PLACEMENT_3D('',#1210,#957,#958);
#849=AXIS2_PLACEMENT_3D('',#1220,#966,#967);
#850=AXIS2_PLACEMENT_3D('',#1226,#971,#972);
#851=AXIS2_PLACEMENT_3D('',#1232,#976,#977);
#852=AXIS2_PLACEMENT_3D('',#1238,#981,#982);
#853=AXIS2_PLACEMENT_3D('',#1244,#986,#987);
#854=AXIS2_PLACEMENT_3D('',#1245,#988,#989);
#855=AXIS2_PLACEMENT_3D('',#1246,#990,#991);
#856=AXIS2_PLACEMENT_3D('',#1247,#992,#993);
#857=AXIS2_PLACEMENT_3D('',#1248,#994,#995);
#858=AXIS2_PLACEMENT_3D('',#1249,#996,#997);
#859=AXIS2_PLACEMENT_3D('',#1250,#998,#999);
#860=AXIS2_PLACEMENT_3D('',#1251,#1000,#1001);
#861=AXIS2_PLACEMENT_3D('',#1252,#1002,#1003);
#862=AXIS2_PLACEMENT_3D('',#1253,#1004,#1005);
#863=AXIS2_PLACEMENT_3D('',#1255,#1007,#1008);
#864=AXIS2_PLACEMENT_3D('',#1257,#1010,#1011);
#865=AXIS2_PLACEMENT_3D('',#1260,#1014,#1015);
#866=AXIS2_PLACEMENT_3D('',#1262,#1017,#1018);
#867=AXIS2_PLACEMENT_3D('',#1264,#1020,#1021);
#868=AXIS2_PLACEMENT_3D('',#1266,#1023,#1024);
#869=AXIS2_PLACEMENT_3D('',#1268,#1026,#1027);
#870=AXIS2_PLACEMENT_3D('',#1270,#1029,#1030);
#871=AXIS2_PLACEMENT_3D('',#1272,#1032,#1033);
#872=AXIS2_PLACEMENT_3D('',#1274,#1035,#1036);
#873=AXIS2_PLACEMENT_3D('',#1276,#1038,#1039);
#874=AXIS2_PLACEMENT_3D('',#1277,#1040,#1041);
#875=AXIS2_PLACEMENT_3D('',#1278,#1042,#1043);
#876=AXIS2_PLACEMENT_3D('',#1283,#1045,#1046);
#877=AXIS2_PLACEMENT_3D('',#1292,#1051,#1052);
#878=AXIS2_PLACEMENT_3D('',#1293,#1053,#1054);
#879=AXIS2_PLACEMENT_3D('',#1299,#1058,#1059);
#880=AXIS2_PLACEMENT_3D('',#1303,#1061,#1062);
#881=AXIS2_PLACEMENT_3D('',#1307,#1064,#1065);
#882=AXIS2_PLACEMENT_3D('',#1311,#1068,#1069);
#883=AXIS2_PLACEMENT_3D('',#1314,#1072,#1073);
#884=AXIS2_PLACEMENT_3D('',#1317,#1076,#1077);
#885=AXIS2_PLACEMENT_3D('',#1319,#1079,#1080);
#886=AXIS2_PLACEMENT_3D('',#1321,#1082,#1083);
#887=AXIS2_PLACEMENT_3D('',#1322,#1084,#1085);
#888=AXIS2_PLACEMENT_3D('',#1323,#1086,#1087);
#889=AXIS2_PLACEMENT_3D('',#1325,#1088,#1089);
#890=AXIS2_PLACEMENT_3D('',#1326,#1090,#1091);
#891=AXIS2_PLACEMENT_3D('',#1327,#1092,#1093);
#892=AXIS2_PLACEMENT_3D('',#1328,#1094,#1095);
#893=AXIS2_PLACEMENT_3D('',#1334,#1099,#1100);
#894=AXIS2_PLACEMENT_3D('',#1338,#1103,#1104);
#895=AXIS2_PLACEMENT_3D('',#1342,#1107,#1108);
#896=AXIS2_PLACEMENT_3D('',#1346,#1111,#1112);
#897=AXIS2_PLACEMENT_3D('',#1350,#1115,#1116);
#898=AXIS2_PLACEMENT_3D('',#1352,#1118,#1119);
#899=AXIS2_PLACEMENT_3D('',#1353,#1120,#1121);
#900=AXIS2_PLACEMENT_3D('',#1355,#1122,#1123);
#901=AXIS2_PLACEMENT_3D('',#1357,#1124,#1125);
#902=AXIS2_PLACEMENT_3D('',#1358,#1126,#1127);
#903=DIRECTION('',(0.,0.,1.));
#904=DIRECTION('',(1.,0.,0.));
#905=DIRECTION('',(0.,1.,0.));
#906=DIRECTION('',(0.,0.,1.));
#907=DIRECTION('',(1.,0.,0.));
#908=DIRECTION('',(0.,0.,1.));
#909=DIRECTION('',(-1.,0.,0.));
#910=DIRECTION('',(0.,0.,-1.));
#911=DIRECTION('',(0.047600441743101,0.,0.998866456512512));
#912=DIRECTION('',(0.924331250196997,0.,-0.381591063717767));
#913=DIRECTION('',(-0.900171497325837,0.,-0.435535618982145));
#914=DIRECTION('',(0.56025946198558,0.,-0.82831717068743));
#915=DIRECTION('',(-0.698070892656951,0.,0.716028650840962));
#916=DIRECTION('',(-0.479320863031488,0.,-0.877639738311085));
#917=DIRECTION('',(1.,0.,0.));
#918=DIRECTION('',(0.,0.,-1.));
#919=DIRECTION('',(0.,1.,3.96508223080413E-16));
#920=DIRECTION('',(0.,1.85037170770859E-16,-1.));
#921=DIRECTION('',(0.,-1.,0.));
#922=DIRECTION('',(0.,0.,1.));
#923=DIRECTION('',(0.,-1.,0.));
#924=DIRECTION('',(0.,0.,-1.));
#925=DIRECTION('',(0.,-1.,0.));
#926=DIRECTION('',(0.,-1.85037170770859E-16,1.));
#927=DIRECTION('',(0.,0.,1.));
#928=DIRECTION('',(1.,0.,0.));
#929=DIRECTION('',(0.,-1.,0.));
#930=DIRECTION('',(1.,0.,0.));
#931=DIRECTION('',(0.,1.,0.));
#932=DIRECTION('',(-1.,0.,0.));
#933=DIRECTION('',(0.,-1.,0.));
#934=DIRECTION('',(0.,0.,1.));
#935=DIRECTION('',(1.,0.,0.));
#936=DIRECTION('',(1.,1.6326809185664E-16,0.));
#937=DIRECTION('',(0.,0.,1.));
#938=DIRECTION('',(1.,0.,0.));
#939=DIRECTION('',(0.,-1.,0.));
#940=DIRECTION('',(0.,0.,1.));
#941=DIRECTION('',(1.,0.,0.));
#942=DIRECTION('',(1.,0.,0.));
#943=DIRECTION('',(0.,0.,1.));
#944=DIRECTION('',(1.,0.,0.));
#945=DIRECTION('',(0.,1.,0.));
#946=DIRECTION('',(0.,0.,1.));
#947=DIRECTION('',(1.,0.,0.));
#948=DIRECTION('',(0.,0.,-1.));
#949=DIRECTION('',(1.,0.,0.));
#950=DIRECTION('',(0.,0.,1.));
#951=DIRECTION('',(1.,0.,0.));
#952=DIRECTION('',(0.,0.,-1.));
#953=DIRECTION('',(0.,-1.,0.));
#954=DIRECTION('',(0.,0.,1.));
#955=DIRECTION('',(0.,1.,0.));
#956=DIRECTION('',(0.,0.,-1.));
#957=DIRECTION('',(0.,0.,1.));
#958=DIRECTION('',(1.,0.,0.));
#959=DIRECTION('',(-0.707106781186547,0.707106781186548,0.));
#960=DIRECTION('',(3.03576608295942E-16,-1.,0.));
#961=DIRECTION('',(-0.707106781186548,-0.707106781186548,0.));
#962=DIRECTION('',(-0.707106781186547,-0.707106781186548,0.));
#963=DIRECTION('',(0.707106781186548,-0.707106781186548,0.));
#964=DIRECTION('',(0.707106781186548,0.707106781186548,0.));
#965=DIRECTION('',(-0.707106781186548,0.707106781186548,0.));
#966=DIRECTION('',(1.6326809185664E-16,-1.,0.));
#967=DIRECTION('',(1.,1.6326809185664E-16,0.));
#968=DIRECTION('',(0.,0.,1.));
#969=DIRECTION('',(1.,1.6326809185664E-16,0.));
#970=DIRECTION('',(0.,0.,1.));
#971=DIRECTION('',(-1.,0.,0.));
#972=DIRECTION('',(0.,0.,1.));
#973=DIRECTION('',(0.,-1.,0.));
#974=DIRECTION('',(0.,0.,1.));
#975=DIRECTION('',(0.,0.,1.));
#976=DIRECTION('',(0.,-1.,0.));
#977=DIRECTION('',(0.,0.,-1.));
#978=DIRECTION('',(1.,0.,0.));
#979=DIRECTION('',(0.,0.,1.));
#980=DIRECTION('',(0.,0.,1.));
#981=DIRECTION('',(-1.,0.,0.));
#982=DIRECTION('',(0.,0.,1.));
#983=DIRECTION('',(0.,-1.,0.));
#984=DIRECTION('',(0.,0.,1.));
#985=DIRECTION('',(0.,0.,1.));
#986=DIRECTION('',(0.,0.,1.));
#987=DIRECTION('',(1.,0.,0.));
#988=DIRECTION('',(0.,0.,1.));
#989=DIRECTION('',(1.,0.,0.));
#990=DIRECTION('',(0.,0.,1.));
#991=DIRECTION('',(1.,0.,0.));
#992=DIRECTION('',(0.,0.,1.));
#993=DIRECTION('',(1.,0.,0.));
#994=DIRECTION('',(0.,0.,1.));
#995=DIRECTION('',(1.,0.,0.));
#996=DIRECTION('',(0.,0.,1.));
#997=DIRECTION('',(1.,0.,0.));
#998=DIRECTION('',(0.,0.,-1.));
#999=DIRECTION('',(-1.,0.,0.));
#1000=DIRECTION('',(0.,0.,1.));
#1001=DIRECTION('',(1.,0.,0.));
#1002=DIRECTION('',(0.,0.,-1.));
#1003=DIRECTION('',(-1.,0.,0.));
#1004=DIRECTION('',(-0.707106781186548,0.707106781186548,0.));
#1005=DIRECTION('',(0.,0.,1.));
#1006=DIRECTION('',(-0.707106781186548,-0.707106781186548,0.));
#1007=DIRECTION('',(0.707106781186548,0.707106781186548,0.));
#1008=DIRECTION('',(0.,0.,-1.));
#1009=DIRECTION('',(-0.707106781186548,0.707106781186548,0.));
#1010=DIRECTION('',(-0.707106781186548,0.,0.707106781186548));
#1011=DIRECTION('',(0.,1.,0.));
#1012=DIRECTION('',(0.707106781186548,6.73036940234247E-16,0.707106781186548));
#1013=DIRECTION('',(-0.707106781186548,0.,-0.707106781186548));
#1014=DIRECTION('',(-0.577350269189626,0.577350269189626,0.577350269189625));
#1015=DIRECTION('',(-0.707106781186548,-0.707106781186548,0.));
#1016=DIRECTION('',(7.69185074553425E-16,-0.707106781186547,0.707106781186548));
#1017=DIRECTION('',(-0.577350269189626,-0.577350269189626,0.577350269189626));
#1018=DIRECTION('',(0.707106781186548,0.,0.707106781186548));
#1019=DIRECTION('',(6.73036940234247E-16,0.707106781186547,0.707106781186548));
#1020=DIRECTION('',(0.,-0.707106781186548,-0.707106781186547));
#1021=DIRECTION('',(1.,0.,0.));
#1022=DIRECTION('',(-7.00792515849876E-16,0.707106781186547,-0.707106781186548));
#1023=DIRECTION('',(-0.707106781186548,-0.707106781186548,0.));
#1024=DIRECTION('',(0.,0.,-1.));
#1025=DIRECTION('',(0.707106781186548,-0.707106781186548,0.));
#1026=DIRECTION('',(0.707106781186548,-0.707106781186547,0.));
#1027=DIRECTION('',(0.,0.,1.));
#1028=DIRECTION('',(0.707106781186547,0.707106781186548,0.));
#1029=DIRECTION('',(0.,-0.707106781186548,0.707106781186547));
#1030=DIRECTION('',(-1.,0.,0.));
#1031=DIRECTION('',(-6.73036940234246E-16,-0.707106781186547,-0.707106781186548));
#1032=DIRECTION('',(0.577350269189626,0.577350269189626,0.577350269189625));
#1033=DIRECTION('',(-0.707106781186548,0.707106781186548,0.));
#1034=DIRECTION('',(-0.707106781186547,7.00792515849876E-16,0.707106781186548));
#1035=DIRECTION('',(0.577350269189627,-0.577350269189626,0.577350269189625));
#1036=DIRECTION('',(0.707106781186547,0.707106781186548,0.));
#1037=DIRECTION('',(0.707106781186547,5.76888805915069E-16,-0.707106781186548));
#1038=DIRECTION('',(-0.707106781186548,0.,-0.707106781186547));
#1039=DIRECTION('',(0.,-1.,0.));
#1040=DIRECTION('',(0.,-3.96508223080413E-16,1.));
#1041=DIRECTION('',(0.,-1.,-3.96508223080413E-16));
#1042=DIRECTION('',(0.,-3.96508223080413E-16,1.));
#1043=DIRECTION('',(0.,-1.,-3.96508223080413E-16));
#1044=DIRECTION('',(0.,1.,3.96508223080413E-16));
#1045=DIRECTION('',(0.,-3.96508223080413E-16,1.));
#1046=DIRECTION('',(0.,-1.,-3.96508223080413E-16));
#1047=DIRECTION('',(-1.,0.,0.));
#1048=DIRECTION('',(0.707106781186547,-0.707106781186548,-2.80373653336388E-16));
#1049=DIRECTION('',(0.707106781186548,0.707106781186548,2.80373653336388E-16));
#1050=DIRECTION('',(-1.,0.,0.));
#1051=DIRECTION('',(0.,-3.96508223080413E-16,1.));
#1052=DIRECTION('',(0.,-1.,-3.96508223080413E-16));
#1053=DIRECTION('',(0.,1.,1.85037170770859E-16));
#1054=DIRECTION('',(0.,-1.85037170770859E-16,1.));
#1055=DIRECTION('',(-1.,0.,0.));
#1056=DIRECTION('',(0.,1.85037170770859E-16,-1.));
#1057=DIRECTION('',(0.,1.85037170770859E-16,-1.));
#1058=DIRECTION('',(0.,-3.03576608295942E-16,1.));
#1059=DIRECTION('',(0.,-1.,-3.03576608295942E-16));
#1060=DIRECTION('',(-1.,0.,0.));
#1061=DIRECTION('',(0.,-3.03576608295942E-16,1.));
#1062=DIRECTION('',(0.,-1.,-3.03576608295942E-16));
#1063=DIRECTION('',(0.,1.,3.03576608295942E-16));
#1064=DIRECTION('',(0.,-3.03576608295942E-16,1.));
#1065=DIRECTION('',(0.,-1.,-3.03576608295942E-16));
#1066=DIRECTION('',(0.,1.,3.03576608295942E-16));
#1067=DIRECTION('',(-0.707106781186547,0.707106781186548,2.14661078335673E-16));
#1068=DIRECTION('',(0.,1.,1.85037170770859E-16));
#1069=DIRECTION('',(0.,-1.85037170770859E-16,1.));
#1070=DIRECTION('',(0.,1.85037170770859E-16,-1.));
#1071=DIRECTION('',(0.,-1.85037170770859E-16,1.));
#1072=DIRECTION('',(1.,0.,0.));
#1073=DIRECTION('',(0.,1.,0.));
#1074=DIRECTION('',(0.,1.85037170770859E-16,-1.));
#1075=DIRECTION('',(0.,1.85037170770859E-16,-1.));
#1076=DIRECTION('',(-0.707106781186548,0.707106781186547,1.30841038223648E-16));
#1077=DIRECTION('',(0.,1.85037170770859E-16,-1.));
#1078=DIRECTION('',(0.577350269189626,0.577350269189626,0.577350269189626));
#1079=DIRECTION('',(-0.707106781186547,-2.14661078335673E-16,0.707106781186548));
#1080=DIRECTION('',(0.,1.,3.03576608295942E-16));
#1081=DIRECTION('',(-0.577350269189626,0.577350269189626,-0.577350269189625));
#1082=DIRECTION('',(0.707106781186548,0.707106781186547,1.30841038223648E-16));
#1083=DIRECTION('',(0.,-1.85037170770859E-16,1.));
#1084=DIRECTION('',(0.,-3.96508223080413E-16,1.));
#1085=DIRECTION('',(0.,-1.,-3.96508223080413E-16));
#1086=DIRECTION('',(0.,-3.96508223080413E-16,1.));
#1087=DIRECTION('',(0.,-1.,-3.96508223080413E-16));
#1088=DIRECTION('',(0.,-3.96508223080413E-16,1.));
#1089=DIRECTION('',(1.,0.,0.));
#1090=DIRECTION('',(0.,1.85037170770859E-16,-1.));
#1091=DIRECTION('',(0.,1.,1.85037170770859E-16));
#1092=DIRECTION('',(0.,-1.85037170770859E-16,1.));
#1093=DIRECTION('',(0.,-1.,-1.85037170770859E-16));
#1094=DIRECTION('',(0.998866456512512,0.,-0.047600441743101));
#1095=DIRECTION('',(-0.047600441743101,0.,-0.998866456512512));
#1096=DIRECTION('',(0.,-1.,0.));
#1097=DIRECTION('',(0.047600441743101,0.,0.998866456512512));
#1098=DIRECTION('',(0.,-1.,0.));
#1099=DIRECTION('',(-0.877639738311085,0.,0.479320863031488));
#1100=DIRECTION('',(0.479320863031488,0.,0.877639738311085));
#1101=DIRECTION('',(0.,-1.,0.));
#1102=DIRECTION('',(-0.479320863031488,0.,-0.877639738311085));
#1103=DIRECTION('',(0.716028650840962,0.,0.698070892656951));
#1104=DIRECTION('',(0.698070892656951,0.,-0.716028650840962));
#1105=DIRECTION('',(0.,-1.,0.));
#1106=DIRECTION('',(-0.698070892656951,0.,0.716028650840962));
#1107=DIRECTION('',(-0.82831717068743,0.,-0.56025946198558));
#1108=DIRECTION('',(-0.560259461985579,0.,0.82831717068743));
#1109=DIRECTION('',(0.,-1.,0.));
#1110=DIRECTION('',(0.56025946198558,0.,-0.82831717068743));
#1111=DIRECTION('',(-0.435535618982145,0.,0.900171497325837));
#1112=DIRECTION('',(0.900171497325837,0.,0.435535618982145));
#1113=DIRECTION('',(0.,-1.,0.));
#1114=DIRECTION('',(-0.900171497325837,0.,-0.435535618982145));
#1115=DIRECTION('',(-0.381591063717767,0.,-0.924331250196997));
#1116=DIRECTION('',(-0.924331250196997,0.,0.381591063717767));
#1117=DIRECTION('',(0.924331250196997,0.,-0.381591063717767));
#1118=DIRECTION('',(0.,-1.,0.));
#1119=DIRECTION('',(0.,0.,-1.));
#1120=DIRECTION('',(0.,-1.,0.));
#1121=DIRECTION('',(0.,0.,-1.));
#1122=DIRECTION('',(0.,-1.,0.));
#1123=DIRECTION('',(0.,0.,-1.));
#1124=DIRECTION('',(0.,-1.,0.));
#1125=DIRECTION('',(1.,0.,0.));
#1126=DIRECTION('',(0.,1.,0.));
#1127=DIRECTION('',(0.,0.,1.));
#1128=CARTESIAN_POINT('',(0.,0.,0.));
#1129=CARTESIAN_POINT('',(0.00105013139545917,-0.0481860011140176,0.15));
#1130=CARTESIAN_POINT('',(0.00105013139545917,-0.0481860011140176,0.));
#1131=CARTESIAN_POINT('',(-0.0419498686045408,-0.0481860011140176,0.));
#1132=CARTESIAN_POINT('',(0.0440501313954592,-0.0481860011140176,0.));
#1133=CARTESIAN_POINT('',(0.0440501313954592,-0.0481860011140176,0.15));
#1134=CARTESIAN_POINT('',(0.0440501313954592,-0.0481860011140176,0.143));
#1135=CARTESIAN_POINT('',(-0.0489498686045408,-0.0481860011140176,0.143));
#1136=CARTESIAN_POINT('',(-0.0419498686045408,-0.0481860011140176,0.143));
#1137=CARTESIAN_POINT('',(-0.0419498686045408,-0.0481860011140176,0.15));
#1138=CARTESIAN_POINT('',(-0.0256687352368455,-0.0481860011140176,0.0817400627984316));
#1139=CARTESIAN_POINT('',(-0.0275337103212225,-0.0481860011140176,0.042604689558208));
#1140=CARTESIAN_POINT('',(-0.0238037601524685,-0.0481860011140176,0.120875436038655));
#1141=CARTESIAN_POINT('',(0.00156143074474283,-0.0481860011140176,0.110403940918472));
#1142=CARTESIAN_POINT('',(0.0269266216419541,-0.0481860011140176,0.099932445798288));
#1143=CARTESIAN_POINT('',(0.0073566705415336,-0.0481860011140176,0.0904637936677855));
#1144=CARTESIAN_POINT('',(-0.0122132805588869,-0.0481860011140176,0.0809951415372829));
#1145=CARTESIAN_POINT('',(0.0122216302160886,-0.0481860011140176,0.0448692792673325));
#1146=CARTESIAN_POINT('',(0.0366565409910641,-0.0481860011140176,0.00874341699738216));
#1147=CARTESIAN_POINT('',(0.0101587669471422,-0.0481860011140176,0.0359228418932458));
#1148=CARTESIAN_POINT('',(-0.0163390070967797,-0.0481860011140176,0.0631022667891093));
#1149=CARTESIAN_POINT('',(-0.021936358709001,-0.0481860011140176,0.0528534781736587));
#1150=CARTESIAN_POINT('',(0.0510501313954592,0.00181399888598241,0.15));
#1151=CARTESIAN_POINT('',(0.0510501313954592,-0.00118600111401759,0.0775));
#1152=CARTESIAN_POINT('',(0.0510501313954592,-0.0401860011140176,0.0775));
#1153=CARTESIAN_POINT('',(0.0510501313954592,0.0438139988859824,0.0775));
#1154=CARTESIAN_POINT('',(0.0510501313954592,0.0438139988859824,1.85037170770859E-18));
#1155=CARTESIAN_POINT('',(0.0510501313954592,0.0438139988859824,0.));
#1156=CARTESIAN_POINT('',(0.0510501313954592,0.00181399888598241,0.));
#1157=CARTESIAN_POINT('',(0.0510501313954592,0.0448139988859824,0.));
#1158=CARTESIAN_POINT('',(0.0510501313954592,0.0448139988859824,0.15));
#1159=CARTESIAN_POINT('',(0.0510501313954592,0.0448139988859824,0.143));
#1160=CARTESIAN_POINT('',(0.0510501313954592,0.00181399888598241,0.143));
#1161=CARTESIAN_POINT('',(0.0510501313954592,-0.0411860011140176,0.143));
#1162=CARTESIAN_POINT('',(0.0510501313954592,-0.0411860011140176,0.));
#1163=CARTESIAN_POINT('',(0.0510501313954592,-0.0411860011140176,0.));
#1164=CARTESIAN_POINT('',(0.0510501313954592,0.00181399888598241,0.));
#1165=CARTESIAN_POINT('',(0.0510501313954592,-0.0401860011140176,0.));
#1166=CARTESIAN_POINT('',(0.0510501313954592,-0.0401860011140176,0.15));
#1167=CARTESIAN_POINT('',(0.00105013139545917,0.0018139988859824,0.15));
#1168=CARTESIAN_POINT('',(-0.0419498686045408,-0.0481860011140176,0.15));
#1169=CARTESIAN_POINT('',(-0.0419498686045408,0.0448139988859824,0.15));
#1170=CARTESIAN_POINT('',(-0.0419498686045408,-0.0411860011140176,0.15));
#1171=CARTESIAN_POINT('',(0.0510501313954592,-0.0411860011140176,0.15));
#1172=CARTESIAN_POINT('',(0.0440501313954592,-0.0411860011140176,0.15));
#1173=CARTESIAN_POINT('',(0.0440501313954592,0.0018139988859824,0.15));
#1174=CARTESIAN_POINT('',(0.0440501313954592,0.0448139988859824,0.15));
#1175=CARTESIAN_POINT('',(0.00105013139545917,0.0448139988859824,0.15));
#1176=CARTESIAN_POINT('',(-0.0414498686045408,0.0018139988859824,0.15));
#1177=CARTESIAN_POINT('',(-0.0414498686045408,0.0343139988859824,0.15));
#1178=CARTESIAN_POINT('',(-0.0414498686045408,-0.0306860011140176,0.15));
#1179=CARTESIAN_POINT('',(-0.0314498686045408,0.0343139988859824,0.15));
#1180=CARTESIAN_POINT('',(-0.0314498686045408,0.0443139988859824,0.15));
#1181=CARTESIAN_POINT('',(0.00105013139545917,0.0443139988859824,0.15));
#1182=CARTESIAN_POINT('',(0.0335501313954592,0.0443139988859824,0.15));
#1183=CARTESIAN_POINT('',(0.0335501313954592,0.0343139988859824,0.15));
#1184=CARTESIAN_POINT('',(0.0435501313954592,0.0343139988859824,0.15));
#1185=CARTESIAN_POINT('',(0.0435501313954592,0.00181399888598241,0.15));
#1186=CARTESIAN_POINT('',(0.0435501313954592,-0.0306860011140176,0.15));
#1187=CARTESIAN_POINT('',(0.0335501313954592,-0.0306860011140176,0.15));
#1188=CARTESIAN_POINT('',(0.0335501313954592,-0.0406860011140176,0.15));
#1189=CARTESIAN_POINT('',(0.00105013139545917,-0.0406860011140176,0.15));
#1190=CARTESIAN_POINT('',(-0.0314498686045408,-0.0406860011140176,0.15));
#1191=CARTESIAN_POINT('',(-0.0314498686045408,-0.0306860011140176,0.15));
#1192=CARTESIAN_POINT('',(0.00105013139545917,0.0518139988859824,0.15));
#1193=CARTESIAN_POINT('',(0.00105013139545917,0.0518139988859824,0.143));
#1194=CARTESIAN_POINT('',(-0.0419498686045408,0.0518139988859824,0.143));
#1195=CARTESIAN_POINT('',(0.0440501313954592,0.0518139988859824,0.143));
#1196=CARTESIAN_POINT('',(0.0440501313954592,0.0518139988859824,0.15));
#1197=CARTESIAN_POINT('',(0.0440501313954592,0.0518139988859824,0.));
#1198=CARTESIAN_POINT('',(0.00105013139545917,0.0518139988859824,0.));
#1199=CARTESIAN_POINT('',(-0.0419498686045408,0.0518139988859824,0.));
#1200=CARTESIAN_POINT('',(-0.0419498686045408,0.0518139988859824,0.15));
#1201=CARTESIAN_POINT('',(-0.0489498686045408,0.00181399888598241,0.15));
#1202=CARTESIAN_POINT('',(-0.0489498686045408,0.00181399888598241,0.));
#1203=CARTESIAN_POINT('',(-0.0489498686045408,0.0448139988859824,0.));
#1204=CARTESIAN_POINT('',(-0.0489498686045408,-0.0411860011140176,0.));
#1205=CARTESIAN_POINT('',(-0.0489498686045408,-0.0411860011140176,0.15));
#1206=CARTESIAN_POINT('',(-0.0489498686045408,-0.0411860011140176,0.143));
#1207=CARTESIAN_POINT('',(-0.0489498686045408,0.0518139988859824,0.143));
#1208=CARTESIAN_POINT('',(-0.0489498686045408,0.0448139988859824,0.143));
#1209=CARTESIAN_POINT('',(-0.0489498686045408,0.0448139988859824,0.));
#1210=CARTESIAN_POINT('',(0.00105013139545917,0.0018139988859824,0.));
#1211=CARTESIAN_POINT('',(0.0470501313954592,0.0478139988859824,0.));
#1212=CARTESIAN_POINT('',(0.0525501313954592,0.0423139988859825,0.));
#1213=CARTESIAN_POINT('',(0.0525501313954592,0.00181399888598242,0.));
#1214=CARTESIAN_POINT('',(0.0525501313954592,-0.0386860011140175,0.));
#1215=CARTESIAN_POINT('',(0.0470501313954592,-0.0441860011140176,0.));
#1216=CARTESIAN_POINT('',(0.0510501313954592,-0.0411860011140176,0.));
#1217=CARTESIAN_POINT('',(-0.0419498686045408,-0.0481860011140176,0.));
#1218=CARTESIAN_POINT('',(-0.0489498686045408,0.0448139988859824,0.));
#1219=CARTESIAN_POINT('',(0.0440501313954592,0.0518139988859824,0.));
#1220=CARTESIAN_POINT('',(0.00105013139545917,0.0443139988859824,0.01));
#1221=CARTESIAN_POINT('',(-0.0314498686045408,0.0443139988859824,0.01));
#1222=CARTESIAN_POINT('',(-0.0314498686045408,0.0443139988859824,0.01));
#1223=CARTESIAN_POINT('',(0.00105013139545917,0.0443139988859824,0.01));
#1224=CARTESIAN_POINT('',(0.0335501313954592,0.0443139988859824,0.01));
#1225=CARTESIAN_POINT('',(0.0335501313954592,0.0443139988859824,0.15));
#1226=CARTESIAN_POINT('',(-0.0414498686045408,0.0018139988859824,0.01));
#1227=CARTESIAN_POINT('',(-0.0414498686045408,0.0018139988859824,0.01));
#1228=CARTESIAN_POINT('',(-0.0414498686045408,0.0343139988859824,0.01));
#1229=CARTESIAN_POINT('',(-0.0414498686045408,-0.0306860011140176,0.01));
#1230=CARTESIAN_POINT('',(-0.0414498686045408,0.0343139988859824,0.01));
#1231=CARTESIAN_POINT('',(-0.0414498686045408,-0.0306860011140176,0.01));
#1232=CARTESIAN_POINT('',(0.00105013139545917,-0.0406860011140176,0.01));
#1233=CARTESIAN_POINT('',(0.00105013139545917,-0.0406860011140176,0.01));
#1234=CARTESIAN_POINT('',(-0.0314498686045408,-0.0406860011140176,0.01));
#1235=CARTESIAN_POINT('',(0.0335501313954592,-0.0406860011140176,0.01));
#1236=CARTESIAN_POINT('',(-0.0314498686045408,-0.0406860011140176,0.15));
#1237=CARTESIAN_POINT('',(0.0335501313954592,-0.0406860011140176,0.01));
#1238=CARTESIAN_POINT('',(0.0435501313954592,0.00181399888598241,0.01));
#1239=CARTESIAN_POINT('',(0.0435501313954592,0.00181399888598241,0.01));
#1240=CARTESIAN_POINT('',(0.0435501313954592,0.0343139988859824,0.01));
#1241=CARTESIAN_POINT('',(0.0435501313954592,-0.0306860011140176,0.01));
#1242=CARTESIAN_POINT('',(0.0435501313954592,-0.0306860011140176,0.01));
#1243=CARTESIAN_POINT('',(0.0435501313954592,0.0343139988859824,0.01));
#1244=CARTESIAN_POINT('',(0.00105013139545917,0.0018139988859824,0.01));
#1245=CARTESIAN_POINT('',(-0.0314498686045408,0.0343139988859824,0.01));
#1246=CARTESIAN_POINT('',(-0.0314498686045408,-0.0306860011140176,0.01));
#1247=CARTESIAN_POINT('',(0.0335501313954592,-0.0306860011140176,0.01));
#1248=CARTESIAN_POINT('',(0.0335501313954592,0.0343139988859824,0.01));
#1249=CARTESIAN_POINT('',(-0.0314498686045408,0.0343139988859824,0.01));
#1250=CARTESIAN_POINT('',(-0.0314498686045408,-0.0306860011140176,0.01));
#1251=CARTESIAN_POINT('',(0.0335501313954592,-0.0306860011140176,0.01));
#1252=CARTESIAN_POINT('',(0.0335501313954592,0.0343139988859824,0.01));
#1253=CARTESIAN_POINT('',(-0.0489498686045408,0.0448139988859824,0.15));
#1254=CARTESIAN_POINT('',(-0.0489498686045408,0.0448139988859824,0.143));
#1255=CARTESIAN_POINT('',(-0.0419498686045408,-0.0481860011140176,0.15));
#1256=CARTESIAN_POINT('',(-0.0454498686045408,-0.0446860011140176,0.143));
#1257=CARTESIAN_POINT('',(-0.0419498686045408,0.0018139988859824,0.15));
#1258=CARTESIAN_POINT('',(-0.0489498686045408,0.0448139988859824,0.143));
#1259=CARTESIAN_POINT('',(-0.0419498686045408,-0.0411860011140176,0.15));
#1260=CARTESIAN_POINT('',(-0.0489498686045408,0.0448139988859824,0.143));
#1261=CARTESIAN_POINT('',(-0.0419498686045408,0.0483139988859824,0.1465));
#1262=CARTESIAN_POINT('',(-0.0419498686045408,-0.0411860011140176,0.15));
#1263=CARTESIAN_POINT('',(-0.0419498686045408,-0.0411860011140176,0.15));
#1264=CARTESIAN_POINT('',(0.00105013139545917,0.0518139988859824,0.143));
#1265=CARTESIAN_POINT('',(0.0440501313954592,0.0448139988859824,0.15));
#1266=CARTESIAN_POINT('',(0.0440501313954592,0.0518139988859824,0.15));
#1267=CARTESIAN_POINT('',(0.0475501313954592,0.0483139988859824,0.143));
#1268=CARTESIAN_POINT('',(0.0510501313954592,-0.0411860011140176,0.15));
#1269=CARTESIAN_POINT('',(0.0510501313954592,-0.0411860011140176,0.143));
#1270=CARTESIAN_POINT('',(0.00105013139545917,-0.0411860011140176,0.15));
#1271=CARTESIAN_POINT('',(0.0440501313954592,-0.0446860011140176,0.1465));
#1272=CARTESIAN_POINT('',(0.0440501313954592,0.0448139988859824,0.15));
#1273=CARTESIAN_POINT('',(0.0440501313954592,0.0448139988859824,0.15));
#1274=CARTESIAN_POINT('',(0.0510501313954592,-0.0411860011140176,0.143));
#1275=CARTESIAN_POINT('',(0.0510501313954592,-0.0411860011140176,0.143));
#1276=CARTESIAN_POINT('',(0.0510501313954592,0.00181399888598241,0.143));
#1277=CARTESIAN_POINT('',(0.131050131395459,-0.00118600111401759,0.0775));
#1278=CARTESIAN_POINT('',(0.0911155417561531,-2.88899954798766E-17,0.0775));
#1279=CARTESIAN_POINT('',(0.0911155417561531,-0.030039547894724,0.0775));
#1280=CARTESIAN_POINT('',(0.131050131395459,-0.00118600111401759,0.0775));
#1281=CARTESIAN_POINT('',(0.131050131395459,-0.0111860011140176,0.0775));
#1282=CARTESIAN_POINT('',(0.131050131395459,0.0088139988859824,0.0775));
#1283=CARTESIAN_POINT('',(0.106050131395459,0.0088139988859824,0.0775));
#1284=CARTESIAN_POINT('',(0.106050131395459,0.0338139988859824,0.0775));
#1285=CARTESIAN_POINT('',(0.131050131395459,0.0338139988859824,0.0775));
#1286=CARTESIAN_POINT('',(0.0610501313954592,0.0338139988859824,0.0775));
#1287=CARTESIAN_POINT('',(0.0510501313954592,0.0438139988859824,0.0775));
#1288=CARTESIAN_POINT('',(0.0550501313954592,-0.0361860011140176,0.0775));
#1289=CARTESIAN_POINT('',(0.0550501313954592,-0.0361860011140176,0.0775));
#1290=CARTESIAN_POINT('',(0.131050131395459,-0.0361860011140176,0.0775));
#1291=CARTESIAN_POINT('',(0.106050131395459,-0.0361860011140176,0.0775));
#1292=CARTESIAN_POINT('',(0.106050131395459,-0.0111860011140176,0.0775));
#1293=CARTESIAN_POINT('',(0.131050131395459,-0.0361860011140176,0.04));
#1294=CARTESIAN_POINT('',(0.131050131395459,-0.0361860011140176,0.0025));
#1295=CARTESIAN_POINT('',(0.106050131395459,-0.0361860011140176,0.0025));
#1296=CARTESIAN_POINT('',(0.0550501313954592,-0.0361860011140176,0.0025));
#1297=CARTESIAN_POINT('',(0.106050131395459,-0.0361860011140176,0.0775));
#1298=CARTESIAN_POINT('',(0.0550501313954592,-0.0361860011140176,0.04));
#1299=CARTESIAN_POINT('',(0.131050131395459,-0.00118600111401758,0.0025));
#1300=CARTESIAN_POINT('',(0.131050131395459,0.0338139988859824,0.0025));
#1301=CARTESIAN_POINT('',(0.106050131395459,0.0338139988859824,0.0025));
#1302=CARTESIAN_POINT('',(0.0610501313954592,0.0338139988859824,0.0025));
#1303=CARTESIAN_POINT('',(0.106050131395459,0.00881399888598242,0.0025));
#1304=CARTESIAN_POINT('',(0.131050131395459,0.00881399888598242,0.0025));
#1305=CARTESIAN_POINT('',(0.131050131395459,-0.00118600111401758,0.0025));
#1306=CARTESIAN_POINT('',(0.131050131395459,-0.0111860011140176,0.0025));
#1307=CARTESIAN_POINT('',(0.106050131395459,-0.0111860011140176,0.0025));
#1308=CARTESIAN_POINT('',(0.0550501313954592,-0.00118600111401758,0.0025));
#1309=CARTESIAN_POINT('',(0.0550501313954592,0.0398139988859824,0.0025));
#1310=CARTESIAN_POINT('',(0.113550131395459,-0.0186860011140176,0.0025));
#1311=CARTESIAN_POINT('',(0.131050131395459,0.0338139988859824,0.04));
#1312=CARTESIAN_POINT('',(0.106050131395459,0.0338139988859824,0.04));
#1313=CARTESIAN_POINT('',(0.0610501313954592,0.0338139988859824,0.0775));
#1314=CARTESIAN_POINT('',(0.131050131395459,0.00181399888598241,0.0715));
#1315=CARTESIAN_POINT('',(0.131050131395459,0.0088139988859824,0.0715));
#1316=CARTESIAN_POINT('',(0.131050131395459,-0.0111860011140176,0.0025));
#1317=CARTESIAN_POINT('',(0.0550501313954592,-0.0361860011140176,0.04));
#1318=CARTESIAN_POINT('',(0.0675501313954592,-0.0236860011140176,0.015));
#1319=CARTESIAN_POINT('',(0.0550501313954592,-0.00118600111401758,0.0025));
#1320=CARTESIAN_POINT('',(0.0687167980621259,0.0261473322193158,0.0161666666666666));
#1321=CARTESIAN_POINT('',(0.0510501313954592,0.0438139988859824,0.15));
#1322=CARTESIAN_POINT('',(0.0911155417561531,-3.11696097964979E-18,0.0125));
#1323=CARTESIAN_POINT('',(0.0911155417561531,-3.11696097964979E-18,0.0125));
#1324=CARTESIAN_POINT('',(0.0911155417561531,-0.030039547894724,0.0125));
#1325=CARTESIAN_POINT('',(0.0910501313954592,0.00181399888598244,0.0125));
#1326=CARTESIAN_POINT('',(0.106050131395459,0.00881399888598241,0.04));
#1327=CARTESIAN_POINT('',(0.106050131395459,-0.0111860011140176,0.0715));
#1328=CARTESIAN_POINT('',(-0.0256687352368455,-0.0431860011140176,0.0817400627984316));
#1329=CARTESIAN_POINT('',(-0.0275337103212225,-0.0431860011140176,0.042604689558208));
#1330=CARTESIAN_POINT('',(-0.0275337103212225,-0.0431860011140176,0.042604689558208));
#1331=CARTESIAN_POINT('',(-0.0256687352368455,-0.0431860011140176,0.0817400627984316));
#1332=CARTESIAN_POINT('',(-0.0238037601524685,-0.0431860011140176,0.120875436038655));
#1333=CARTESIAN_POINT('',(-0.0238037601524685,-0.0431860011140176,0.120875436038655));
#1334=CARTESIAN_POINT('',(-0.021936358709001,-0.0431860011140176,0.0528534781736587));
#1335=CARTESIAN_POINT('',(-0.0163390070967797,-0.0431860011140176,0.0631022667891093));
#1336=CARTESIAN_POINT('',(-0.0163390070967797,-0.0431860011140176,0.0631022667891093));
#1337=CARTESIAN_POINT('',(-0.021936358709001,-0.0431860011140176,0.0528534781736587));
#1338=CARTESIAN_POINT('',(0.0101587669471422,-0.0431860011140176,0.0359228418932458));
#1339=CARTESIAN_POINT('',(0.0366565409910641,-0.0431860011140176,0.00874341699738216));
#1340=CARTESIAN_POINT('',(0.0366565409910641,-0.0431860011140176,0.00874341699738216));
#1341=CARTESIAN_POINT('',(0.0101587669471422,-0.0431860011140176,0.0359228418932458));
#1342=CARTESIAN_POINT('',(0.0122216302160886,-0.0431860011140176,0.0448692792673325));
#1343=CARTESIAN_POINT('',(-0.0122132805588869,-0.0431860011140176,0.0809951415372829));
#1344=CARTESIAN_POINT('',(-0.0122132805588869,-0.0431860011140176,0.0809951415372829));
#1345=CARTESIAN_POINT('',(0.0122216302160886,-0.0431860011140176,0.0448692792673325));
#1346=CARTESIAN_POINT('',(0.0073566705415336,-0.0431860011140176,0.0904637936677855));
#1347=CARTESIAN_POINT('',(0.0269266216419541,-0.0431860011140176,0.099932445798288));
#1348=CARTESIAN_POINT('',(0.0269266216419541,-0.0431860011140176,0.099932445798288));
#1349=CARTESIAN_POINT('',(0.0073566705415336,-0.0431860011140176,0.0904637936677855));
#1350=CARTESIAN_POINT('',(0.00156143074474283,-0.0431860011140176,0.110403940918472));
#1351=CARTESIAN_POINT('',(0.00156143074474283,-0.0431860011140176,0.110403940918472));
#1352=CARTESIAN_POINT('',(-0.0104816047761054,-0.0431860011140176,0.0993939684031281));
#1353=CARTESIAN_POINT('',(-0.0104816047761054,-0.0431860011140176,0.0993939684031281));
#1354=CARTESIAN_POINT('',(-0.0104816047761054,-0.0431860011140176,0.0935366660383962));
#1355=CARTESIAN_POINT('',(-0.0104816047761054,-0.0481860011140176,0.0993939684031281));
#1356=CARTESIAN_POINT('',(-0.0104816047761054,-0.0481860011140176,0.0935366660383962));
#1357=CARTESIAN_POINT('',(0.00105013139545917,-0.0431860011140176,0.0715));
#1358=CARTESIAN_POINT('',(0.00105013139545917,-0.0481860011140176,0.15));
#1359=MECHANICAL_DESIGN_GEOMETRIC_PRESENTATION_REPRESENTATION('',(#827),
#1360);
#1360=(
GEOMETRIC_REPRESENTATION_CONTEXT(3)
GLOBAL_UNCERTAINTY_ASSIGNED_CONTEXT((#1361))
GLOBAL_UNIT_ASSIGNED_CONTEXT((#1364,#1363,#1362))
REPRESENTATION_CONTEXT('Part 1','TOP_LEVEL_ASSEMBLY_PART')
);
#1361=UNCERTAINTY_MEASURE_WITH_UNIT(LENGTH_MEASURE(1.E-8),#1364,
'DISTANCE_ACCURACY_VALUE','Maximum Tolerance applied to model');
#1362=(
NAMED_UNIT(*)
SI_UNIT($,.STERADIAN.)
SOLID_ANGLE_UNIT()
);
#1363=(
NAMED_UNIT(*)
PLANE_ANGLE_UNIT()
SI_UNIT($,.RADIAN.)
);
#1364=(
LENGTH_UNIT()
NAMED_UNIT(*)
SI_UNIT($,.METRE.)
);
#1365=PRODUCT_DEFINITION_SHAPE('','',#1366);
#1366=PRODUCT_DEFINITION('','',#1368,#1367);
#1367=PRODUCT_DEFINITION_CONTEXT('',#1374,'design');
#1368=PRODUCT_DEFINITION_FORMATION_WITH_SPECIFIED_SOURCE('','',#1370,
 .NOT_KNOWN.);
#1369=PRODUCT_RELATED_PRODUCT_CATEGORY('','',(#1370));
#1370=PRODUCT('Part 1','Part 1','Part 1',(#1372));
#1371=PRODUCT_CATEGORY('','');
#1372=PRODUCT_CONTEXT('',#1374,'mechanical');
#1373=APPLICATION_PROTOCOL_DEFINITION('international standard',
'ap242_managed_model_based_3d_engineering',2020,#1374);
#1374=APPLICATION_CONTEXT('managed model based 3d engineering');
ENDSEC;
END-ISO-10303-21;
